<svg width="54" height="54" viewBox="0 0 54 54" fill="none" xmlns="http://www.w3.org/2000/svg">
<g clip-path="url(#clip0_3_1800)">
<rect x="4" y="4" width="46" height="46" rx="23" fill="#A22FFF"/>
<path d="M26.4337 17.8418C26.4337 17.8842 26.8223 18.5837 27.2886 19.3962L28.1436 20.873L32.6091 20.8942L37.0676 20.9154L37.3927 21.0779C37.8661 21.3111 38.2476 21.6644 38.4808 22.0883C38.6786 22.4416 38.6928 22.5264 38.6928 23.1764C38.6928 23.8265 38.6786 23.9113 38.4879 24.2363C38.2264 24.6885 37.8519 25.0489 37.4139 25.2679L37.0676 25.4375L33.9446 25.4728L30.8215 25.5081L31.6553 27.0273L32.4961 28.5464L34.8207 28.5817L37.1383 28.6171L37.5128 28.822C37.9367 29.0622 38.2971 29.4226 38.5303 29.8677C38.6645 30.1221 38.6928 30.2775 38.6928 30.8428C38.6928 31.401 38.6645 31.5706 38.5303 31.8461C38.3041 32.2983 37.8519 32.7364 37.3856 32.9555L36.997 33.1392L34.3473 33.1604L31.6977 33.1816L30.0796 30.3694C29.1893 28.822 28.0658 26.8718 27.5783 26.0381C23.7416 19.4033 22.9714 18.0679 22.929 17.9548C22.9078 17.8912 22.8654 17.8418 22.8372 17.8418C22.8089 17.8418 22.498 18.3434 22.1447 18.9511C21.1697 20.6469 20.0109 22.6465 15.9198 29.7335L12.1749 36.2128H19.2619H26.3559L25.4868 34.7078L24.6248 33.2098L21.0778 33.1886C19.1276 33.1816 17.5308 33.1533 17.5308 33.125C17.5308 33.1038 17.8911 32.4609 18.3363 31.6978C18.7814 30.9347 19.9614 28.8997 20.9577 27.1686C21.954 25.4375 22.7807 24.0102 22.7948 23.9961C22.8301 23.9607 22.8654 24.0173 25.4091 28.4404C26.0238 29.5074 26.8505 30.9417 27.2462 31.62C27.6419 32.2983 28.3979 33.6126 28.9349 34.5382L29.91 36.2198L33.7397 36.1916C38.0568 36.1704 37.8095 36.1987 39.0178 35.5698C39.7102 35.2094 40.6641 34.3121 41.0527 33.655C41.618 32.6799 41.8794 31.6483 41.8158 30.5955C41.7452 29.3378 41.3424 28.3415 40.4875 27.3099L40.226 26.992L40.5793 26.6033C40.9821 26.1582 41.4979 25.1549 41.6745 24.4836C41.8441 23.8547 41.8441 22.4981 41.6745 21.8693C41.6109 21.6149 41.406 21.1062 41.2223 20.7387C40.9397 20.1664 40.7984 19.9686 40.219 19.3892C39.6396 18.8098 39.4417 18.6685 38.8694 18.3929C37.6188 17.7852 37.9791 17.8135 31.8602 17.7852C27.8892 17.7711 26.4337 17.7852 26.4337 17.8418Z" fill="white"/>
</g>
<defs>
<clipPath id="clip0_3_1800">
<rect width="54" height="54" fill="white"/>
</clipPath>
</defs>
</svg>
