<svg width="31" height="20" viewBox="0 0 31 20" fill="none" xmlns="http://www.w3.org/2000/svg">
<g id="Group">
<path id="Vector" d="M14.9335 0.841776C14.9335 0.884171 15.3221 1.58368 15.7885 2.39625L16.6434 3.87299L21.109 3.89419L25.5675 3.91539L25.8925 4.0779C26.3659 4.31107 26.7475 4.66436 26.9807 5.08831C27.1785 5.44159 27.1926 5.52638 27.1926 6.17643C27.1926 6.82649 27.1785 6.91127 26.9877 7.2363C26.7263 7.68851 26.3518 8.04886 25.9137 8.2679L25.5675 8.43748L22.4444 8.47281L19.3214 8.50814L20.1551 10.0273L20.996 11.5464L23.3206 11.5817L25.6382 11.6171L26.0127 11.822C26.4366 12.0622 26.797 12.4226 27.0301 12.8677C27.1644 13.1221 27.1926 13.2775 27.1926 13.8428C27.1926 14.401 27.1644 14.5706 27.0301 14.8461C26.804 15.2983 26.3518 15.7364 25.8855 15.9555L25.4969 16.1392L22.8472 16.1604L20.1975 16.1816L18.5795 13.3694C17.6892 11.822 16.5657 9.87183 16.0782 9.03807C12.2415 2.40331 11.4713 1.06788 11.4289 0.954828C11.4077 0.891237 11.3653 0.841776 11.3371 0.841776C11.3088 0.841776 10.9979 1.34345 10.6446 1.9511C9.66953 3.64689 8.51075 5.6465 4.41966 12.7335L0.674805 19.2128H7.76177H14.8558L13.9867 17.7078L13.1247 16.2098L9.57768 16.1886C7.62752 16.1816 6.03066 16.1533 6.03066 16.125C6.03066 16.1038 6.39101 15.4609 6.83616 14.6978C7.2813 13.9347 8.46129 11.8997 9.45756 10.1686C10.4538 8.43748 11.2805 7.0102 11.2947 6.99606C11.33 6.96074 11.3653 7.01726 13.909 11.4404C14.5237 12.5074 15.3504 13.9417 15.7461 14.62C16.1418 15.2983 16.8978 16.6126 17.4348 17.5382L18.4099 19.2198L22.2395 19.1916C26.5567 19.1704 26.3094 19.1987 27.5177 18.5698C28.2101 18.2094 29.164 17.3121 29.5526 16.655C30.1179 15.6799 30.3793 14.6483 30.3157 13.5955C30.2451 12.3378 29.8423 11.3415 28.9874 10.3099L28.7259 9.99195L29.0792 9.60333C29.482 9.15819 29.9978 8.15485 30.1744 7.4836C30.344 6.85475 30.344 5.49812 30.1744 4.86927C30.1108 4.6149 29.9059 4.10616 29.7222 3.73874C29.4396 3.16642 29.2982 2.96857 28.7189 2.38918C28.1395 1.80979 27.9416 1.66847 27.3693 1.39291C26.1186 0.78525 26.479 0.813513 20.36 0.78525C16.3891 0.771118 14.9335 0.78525 14.9335 0.841776Z" fill="white"/>
</g>
</svg>
