<svg width="64" height="59" viewBox="0 0 64 59" fill="none" xmlns="http://www.w3.org/2000/svg">
<g id="images-_1_ 1">
<g id="Group">
<path id="Vector" d="M30.9197 3.61795C29.0564 4.42502 10.8556 15.6684 10.3965 16.2807C9.88345 17.0043 9.85645 17.4496 9.85645 29.6113C9.85645 40.7156 9.91045 42.2741 10.2885 42.8585C10.5586 43.276 14.8522 46.0033 20.8742 49.6212C28.9754 54.4359 31.2168 55.6604 31.9999 55.6604C32.783 55.6604 35.0244 54.4359 43.2607 49.5099C52.4151 43.9996 53.5763 43.2481 53.9003 42.3854C54.2244 41.6062 54.2784 39.2406 54.2244 28.9434C54.1434 16.8651 54.1164 16.4198 53.6033 15.8911C52.6041 14.8892 32.837 3.33965 32.1349 3.36747C31.7569 3.36747 31.2168 3.47879 30.9197 3.61795ZM35.8885 13.2194C38.2379 13.8038 41.1003 15.3901 42.9906 17.2269C44.4759 18.6184 46.3662 21.0675 46.1231 21.2901C46.0961 21.3179 44.8809 22.0694 43.4767 22.9321L40.9113 24.4628L40.2362 23.5722C38.67 21.4849 36.9957 20.2882 34.6733 19.5925C30.2446 18.2845 25.2218 20.5944 23.0615 24.9637C22.3324 26.4387 22.2784 26.8283 22.2784 29.5C22.2784 32.1439 22.3594 32.5892 23.0345 34.0085C24.0067 36.0401 25.7619 37.8769 27.7332 38.851C29.8666 39.9363 33.2151 40.1033 35.4024 39.2684C37.3467 38.517 38.967 37.2925 39.9121 35.901C40.3172 35.2887 40.7493 34.8156 40.8573 34.7878C40.9653 34.7878 42.2345 35.4835 43.6387 36.3462C45.259 37.3203 46.1231 38.0161 46.0151 38.2109C45.286 39.5467 43.3957 41.6896 42.0185 42.775C37.5088 46.2816 32.378 47.2 26.9771 45.4746C21.9543 43.8604 17.6877 39.1849 16.1754 33.6746C15.9864 32.9788 15.8244 31.1142 15.8244 29.5C15.8514 25.9656 16.6345 23.1269 18.3628 20.3996C20.4961 17.0321 24.4657 14.1099 28.1383 13.1915C30.1096 12.7184 33.8092 12.7184 35.8885 13.2194Z" fill="white"/>
</g>
</g>
</svg>
