<svg width="59" height="59" viewBox="0 0 59 59" fill="none" xmlns="http://www.w3.org/2000/svg">
<g id="1643312603cpp 1">
<path id="Vector" d="M34.5744 4.34505C35.2841 4.75382 35.9988 5.15293 36.7153 5.54964C37.6376 6.06055 38.5574 6.57548 39.4747 7.09529C40.1639 7.48569 40.8546 7.87337 41.5459 8.25995C42.3337 8.70051 43.1204 9.14279 43.9059 9.58745C44.6874 10.0298 45.47 10.4702 46.2536 10.9088C46.3557 10.966 46.4578 11.0231 46.563 11.082C47.0796 11.3712 47.5966 11.6599 48.1139 11.9478C48.7281 12.29 49.3412 12.6341 49.9534 12.9799C50.0605 13.0404 50.1676 13.1008 50.278 13.1631C50.5986 13.3448 50.9183 13.5278 51.2379 13.7113C51.3344 13.7659 51.4308 13.8204 51.5302 13.8767C52.1 14.2063 52.6528 14.5549 53.1001 15.045C53.1001 15.1099 53.1001 15.1748 53.1001 15.2416C53.165 15.2416 53.2299 15.2416 53.2967 15.2416C53.4561 15.4652 53.4561 15.4652 53.6348 15.7702C53.6934 15.8683 53.7521 15.9664 53.8126 16.0675C54.2094 16.8264 54.3237 17.5869 54.3182 18.4336C54.319 18.5818 54.319 18.5818 54.3198 18.733C54.3212 19.0615 54.3205 19.3899 54.3198 19.7184C54.3204 19.955 54.321 20.1915 54.3218 20.4281C54.3234 21.0024 54.3236 21.5768 54.3231 22.1511C54.3227 22.6183 54.3228 23.0854 54.3234 23.5526C54.3234 23.6192 54.3235 23.6859 54.3236 23.7546C54.3237 23.89 54.3239 24.0255 54.3241 24.1609C54.3254 25.4293 54.3249 26.6976 54.3237 27.966C54.3228 29.1243 54.324 30.2827 54.3264 31.441C54.3288 32.6327 54.3297 33.8243 54.3291 35.016C54.3287 35.6841 54.3289 36.3522 54.3307 37.0204C54.3322 37.6488 54.3318 38.2772 54.33 38.9056C54.3296 39.1357 54.3299 39.3657 54.3309 39.5958C54.3374 41.1667 54.2809 42.3684 53.2967 43.6599C53.1872 43.8121 53.1872 43.8121 53.0755 43.9672C52.4035 44.6698 51.5176 45.1266 50.6725 45.5897C50.4539 45.7108 50.2353 45.8319 50.0168 45.9531C49.9073 46.0136 49.7979 46.0741 49.6851 46.1364C49.1993 46.406 48.7159 46.68 48.2326 46.9541C46.935 47.6887 45.6335 48.4163 44.3321 49.144C43.145 49.808 41.959 50.4736 40.7753 51.1437C39.9793 51.594 39.1813 52.0409 38.3831 52.4873C37.6991 52.87 37.0163 53.2547 36.3342 53.6408C36.0546 53.7989 35.7749 53.9569 35.4953 54.1149C35.2939 54.2288 35.0925 54.3428 34.8912 54.4569C30.2071 57.1095 30.2071 57.1095 27.982 56.5047C26.9342 56.1324 25.9456 55.5541 24.9967 54.9798C24.4229 54.6327 23.8369 54.3089 23.2498 53.985C23.0135 53.8542 22.7773 53.7233 22.5411 53.5924C22.4816 53.5594 22.422 53.5265 22.3607 53.4925C20.8899 52.6778 19.4248 51.8525 17.9615 51.0243C16.8603 50.4014 15.756 49.7841 14.6517 49.1666C13.3616 48.4451 12.0718 47.7231 10.786 46.994C10.2871 46.7113 9.78702 46.4309 9.28527 46.1532C5.53439 44.076 5.53439 44.076 4.8127 41.9813C4.68758 41.5314 4.69076 41.0898 4.6907 40.6255C4.68992 40.5295 4.68914 40.4335 4.68834 40.3346C4.68598 40.0138 4.68501 39.693 4.68403 39.3722C4.68264 39.1419 4.68116 38.9115 4.6796 38.6811C4.67566 38.0557 4.67295 37.4304 4.67056 36.805C4.66819 36.2161 4.6651 35.6273 4.6621 35.0385C4.65584 33.8003 4.65084 32.5622 4.64622 31.324C4.64197 30.1938 4.6361 29.0635 4.62945 27.9333C4.62263 26.7708 4.61694 25.6082 4.61243 24.4457C4.60989 23.7938 4.60688 23.1419 4.60274 22.4901C4.5989 21.8764 4.59652 21.2628 4.59523 20.6491C4.59452 20.4247 4.59331 20.2003 4.59153 19.9759C4.57641 17.9987 4.6838 16.3036 6.12511 14.7978C6.39747 14.548 6.66657 14.3645 6.98289 14.1742C7.03852 14.1406 7.09416 14.107 7.15148 14.0724C7.73449 13.7231 8.32814 13.3931 8.92382 13.066C9.09816 12.9698 9.27244 12.8734 9.44672 12.777C9.56514 12.7116 9.68357 12.6462 9.80202 12.5808C10.3955 12.2531 10.9874 11.9224 11.5788 11.591C11.6799 11.5344 11.7809 11.4778 11.8851 11.4194C12.6556 10.9874 13.4248 10.5528 14.1936 10.1176C15.3983 9.43617 16.6067 8.76139 17.8147 8.08585C19.0017 7.422 20.1876 6.75651 21.3711 6.08644C22.1706 5.63404 22.9723 5.1856 23.7743 4.73764C24.5366 4.31123 25.2956 3.87928 26.0512 3.44102C29.2937 1.57254 31.5366 2.59483 34.5744 4.34505ZM19.6667 19.3716C19.5437 19.4868 19.5437 19.4868 19.4182 19.6044C16.8133 22.1169 15.4495 25.702 15.3432 29.2831C15.288 33.1162 16.8244 36.6942 19.4561 39.4505C21.5403 41.5823 24.2153 42.927 27.1401 43.4633C27.2056 43.4753 27.2711 43.4874 27.3387 43.4998C29.6838 43.9051 32.0922 43.5629 34.3184 42.7749C34.3805 42.7533 34.4426 42.7316 34.5066 42.7093C36.4858 42.0071 38.1208 40.7751 39.6284 39.3333C39.7045 39.2619 39.7805 39.1906 39.8589 39.117C40.0439 38.9559 40.0439 38.9559 40.0217 38.7433C40.0866 38.7433 40.1515 38.7433 40.2184 38.7433C40.3482 38.5161 40.478 38.289 40.6117 38.0549C39.9428 37.5896 39.2481 37.1875 38.5344 36.7951C37.7526 36.3631 36.975 35.9292 36.2276 35.4394C36.0064 35.3 35.8495 35.2019 35.5837 35.2083C35.3496 35.3273 35.1893 35.4753 35.0006 35.6581C33.1695 37.3282 31.0142 37.7846 28.613 37.6815C26.5997 37.5446 24.7113 36.5083 23.3243 35.0665C21.6418 33.0667 21.1502 30.7863 21.3384 28.2216C21.5644 26.2341 22.7729 24.2826 24.3045 23.033C26.3151 21.5402 28.5412 21.0785 31.0166 21.3659C32.5367 21.6065 34.3544 22.4806 35.3551 23.6841C35.497 23.8202 35.497 23.8202 35.7193 23.7909C36.07 23.671 36.3708 23.4921 36.6845 23.2988C37.2434 22.9605 37.8064 22.6318 38.377 22.3136C38.5024 22.2432 38.6279 22.1729 38.7534 22.1025C38.9415 21.997 39.1298 21.8918 39.3188 21.7877C39.4972 21.6893 39.6748 21.5896 39.8523 21.4896C39.956 21.432 40.0597 21.3744 40.1665 21.3151C40.4182 21.1394 40.509 21.0327 40.6117 20.7483C39.5002 19.5086 38.387 18.4047 36.9734 17.5033C36.8697 17.4366 36.766 17.3699 36.6592 17.3012C31.2003 13.9846 24.2152 15.0641 19.6667 19.3716ZM38.9401 25.9599C38.9401 26.7388 38.9401 27.5175 38.9401 28.3199C38.1613 28.3199 37.3825 28.3199 36.5801 28.3199C36.5801 29.0987 36.5801 29.8775 36.5801 30.6799C37.3589 30.6799 38.1377 30.6799 38.9401 30.6799C38.9401 31.4587 38.9401 32.2375 38.9401 33.0399C39.7189 33.0399 40.4977 33.0399 41.3001 33.0399C41.3001 32.2611 41.3001 31.4823 41.3001 30.6799C42.0789 30.6799 42.8577 30.6799 43.6601 30.6799C43.6601 29.9011 43.6601 29.1223 43.6601 28.3199C42.8813 28.3199 42.1025 28.3199 41.3001 28.3199C41.3001 27.5411 41.3001 26.7624 41.3001 25.9599C40.5213 25.9599 39.7425 25.9599 38.9401 25.9599ZM47.2001 25.9599C47.2001 26.7388 47.2001 27.5175 47.2001 28.3199C46.4213 28.3199 45.6425 28.3199 44.8401 28.3199C44.8401 29.0987 44.8401 29.8775 44.8401 30.6799C45.6189 30.6799 46.3977 30.6799 47.2001 30.6799C47.2001 31.4587 47.2001 32.2375 47.2001 33.0399C47.9789 33.0399 48.7577 33.0399 49.5601 33.0399C49.5601 32.2611 49.5601 31.4823 49.5601 30.6799C50.3389 30.6799 51.1177 30.6799 51.9201 30.6799C51.9201 29.9011 51.9201 29.1223 51.9201 28.3199C51.1413 28.3199 50.3625 28.3199 49.5601 28.3199C49.5601 27.5411 49.5601 26.7624 49.5601 25.9599C48.7813 25.9599 48.0025 25.9599 47.2001 25.9599Z" fill="white"/>
</g>
</svg>
