<svg width="22" height="22" viewBox="0 0 22 22" fill="none" xmlns="http://www.w3.org/2000/svg">
<g id="vuesax/bold/sms">
<g id="vuesax/bold/sms_2">
<g id="sms">
<path id="Vector" d="M15.467 3.6665H6.93366C4.37366 3.6665 2.66699 4.9465 2.66699 7.93317V13.9065C2.66699 16.8932 4.37366 18.1732 6.93366 18.1732H15.467C18.027 18.1732 19.7337 16.8932 19.7337 13.9065V7.93317C19.7337 4.9465 18.027 3.6665 15.467 3.6665ZM15.8681 8.8633L13.1971 10.9966C12.6339 11.4489 11.9171 11.6708 11.2003 11.6708C10.4835 11.6708 9.75819 11.4489 9.20353 10.9966L6.53259 8.8633C6.25953 8.64144 6.21686 8.23184 6.43019 7.95877C6.65206 7.6857 7.05313 7.6345 7.32619 7.85637L9.99713 9.9897C10.6457 10.5102 11.7465 10.5102 12.395 9.9897L15.0659 7.85637C15.339 7.6345 15.7486 7.67717 15.9619 7.95877C16.1838 8.23184 16.1411 8.64144 15.8681 8.8633Z" fill="#A22FFF"/>
</g>
</g>
</g>
</svg>
