<svg width="68" height="68" viewBox="0 0 68 68" fill="none" xmlns="http://www.w3.org/2000/svg">
<g id="expressjs-logo 1">
<g id="Layer 2">
<g id="Layer 1">
<path id="Subtract" fill-rule="evenodd" clip-rule="evenodd" d="M34.0001 4.10339C41.9285 4.10547 49.5316 7.25594 55.1378 12.8622C60.7441 18.4684 63.8945 26.0715 63.8966 33.9999C63.8945 41.9284 60.7441 49.5315 55.1378 55.1377C49.5316 60.744 41.9285 63.8944 34.0001 63.8965C26.0716 63.8944 18.4685 60.744 12.8623 55.1377C7.25606 49.5315 4.10559 41.9284 4.10352 33.9999C4.10559 26.0715 7.25606 18.4684 12.8623 12.8622C18.4685 7.25594 26.0716 4.10547 34.0001 4.10339ZM18.5398 34.6487C18.6179 39.5963 21.7444 41.6363 25.4492 41.6363C27.3606 41.703 29.2632 41.3481 31.0221 40.5968L31.6474 43.223C29.5354 44.1402 27.2511 44.5933 24.949 44.5517C18.7586 44.5517 15.0382 40.3857 15.0382 34.3908C15.0382 28.3958 18.6179 23.5264 24.5269 23.5264C31.069 23.5264 32.8119 29.2712 32.8119 32.9761C32.8194 33.5509 32.7644 34.1249 32.6478 34.6878L18.5398 34.6487ZM29.2791 32.046C29.2791 29.7558 28.3177 26.137 24.1986 26.137C20.4938 26.137 18.868 29.5057 18.5788 32.046H29.2791ZM41.8003 28.2317L38.9318 23.9485H34.8518L41.6831 33.7733L34.5235 44.0515H38.5566L41.472 39.5572C41.7206 39.1428 41.9641 38.7516 42.2027 38.3683C42.6842 37.5946 43.146 36.8527 43.5902 36.0165H43.6762L43.7384 36.1211C44.4268 37.2786 45.0824 38.3811 45.8412 39.5572L48.8348 44.0515H52.9617L45.8803 33.6482L52.7506 23.9485H48.7566L45.9663 28.1926C45.6979 28.6315 45.4219 29.069 45.1444 29.5089C44.735 30.1581 44.3223 30.8123 43.9263 31.4832H43.8403C43.6831 31.2261 43.5298 30.9716 43.3771 30.718C42.8843 29.9 42.397 29.0909 41.8003 28.2317Z" fill="white"/>
</g>
</g>
</g>
</svg>
