<svg width="126" height="126" viewBox="0 0 126 126" fill="none" xmlns="http://www.w3.org/2000/svg">
<g filter="url(#filter0_if_202_579)">
<circle cx="63" cy="63" r="27" fill="url(#paint0_radial_202_579)"/>
</g>
<mask id="mask0_202_579" style="mask-type:luminance" maskUnits="userSpaceOnUse" x="31" y="31" width="64" height="64">
<path fill-rule="evenodd" clip-rule="evenodd" d="M95 50.9322C95 50.1724 95.0003 49.4126 94.9956 48.6528C94.9918 48.0127 94.9845 47.3728 94.9671 46.733C94.9295 45.3386 94.8472 43.9322 94.5992 42.5534C94.3477 41.1546 93.937 39.8528 93.2898 38.5819C92.6535 37.3327 91.8224 36.1897 90.8307 35.1987C89.8393 34.2077 88.6959 33.3771 87.4463 32.7412C86.174 32.0938 84.8708 31.6833 83.4705 31.4318C82.0915 31.1842 80.6848 31.1021 79.2904 31.0645C78.6501 31.0471 78.0099 31.0398 77.3695 31.0359C76.6093 31.0312 75.8491 31.0316 75.0888 31.0316L66.2619 31H59.66L50.9892 31.0316C50.2275 31.0316 49.4658 31.0312 48.7041 31.0359C48.0624 31.0398 47.421 31.0471 46.7795 31.0645C45.3819 31.1021 43.9719 31.1843 42.5897 31.4322C41.1875 31.6836 39.8823 32.094 38.6084 32.7409C37.3561 33.3768 36.2103 34.2075 35.2167 35.1987C34.2234 36.1896 33.3907 37.3324 32.7532 38.5813C32.1042 39.8529 31.6927 41.1555 31.4406 42.555C31.1924 43.9333 31.1101 45.3392 31.0723 46.733C31.0551 47.3728 31.0476 48.0128 31.0437 48.6528C31.0391 49.4127 31 50.3566 31 51.1164L31.0002 59.6671L31 66.3397L31.0395 75.072C31.0395 75.8328 31.0391 76.5937 31.0437 77.3545C31.0476 77.9955 31.0551 78.6363 31.0724 79.277C31.1101 80.6731 31.1925 82.0815 31.441 83.4623C31.693 84.8629 32.1045 86.1666 32.7529 87.4391C33.3904 88.69 34.2233 89.8346 35.2167 90.827C36.2102 91.8194 37.3558 92.651 38.6078 93.2878C39.8825 93.9361 41.1883 94.3472 42.5913 94.5989C43.973 94.8469 45.3824 94.9292 46.7795 94.9668C47.421 94.9842 48.0625 94.9915 48.7042 94.9954C49.4659 95.0001 50.2275 94.9998 50.9892 94.9998L59.7384 95H66.3566L75.0888 94.9997C75.8491 94.9997 76.6093 95.0001 77.3695 94.9954C78.0099 94.9915 78.6501 94.9842 79.2904 94.9668C80.6853 94.9291 82.0925 94.8468 83.4722 94.5986C84.8716 94.3469 86.1742 93.9359 87.4457 93.2881C88.6956 92.6514 89.8392 91.8195 90.8307 90.827C91.8222 89.8347 92.6533 88.6904 93.2896 87.4396C93.9372 86.1665 94.3479 84.8622 94.5995 83.4606C94.8473 82.0804 94.9295 80.6726 94.9671 79.277C94.9845 78.6362 94.9918 77.9954 94.9956 77.3545C95.0004 76.5937 95 75.8328 95 75.072C95 75.072 94.9995 66.4939 94.9995 66.3397V59.6601C94.9995 59.5462 95 50.9322 95 50.9322" fill="white"/>
</mask>
<g mask="url(#mask0_202_579)">
<rect x="26.4951" y="26.1846" width="70.9903" height="70.9903" fill="#101010"/>
<g filter="url(#filter1_ii_202_579)">
<path fill-rule="evenodd" clip-rule="evenodd" d="M95 50.9322C95 50.1724 95.0003 49.4126 94.9956 48.6528C94.9918 48.0127 94.9845 47.3728 94.9671 46.733C94.9295 45.3386 94.8472 43.9322 94.5992 42.5534C94.3477 41.1546 93.937 39.8528 93.2898 38.5819C92.6535 37.3327 91.8224 36.1897 90.8307 35.1987C89.8393 34.2077 88.6959 33.3771 87.4463 32.7412C86.174 32.0938 84.8708 31.6833 83.4705 31.4318C82.0915 31.1842 80.6848 31.1021 79.2904 31.0645C78.6501 31.0471 78.0099 31.0398 77.3695 31.0359C76.6093 31.0312 75.8491 31.0316 75.0888 31.0316L66.2619 31H59.66L50.9892 31.0316C50.2275 31.0316 49.4658 31.0312 48.7041 31.0359C48.0624 31.0398 47.421 31.0471 46.7795 31.0645C45.3819 31.1021 43.9719 31.1843 42.5897 31.4322C41.1875 31.6836 39.8823 32.094 38.6084 32.7409C37.3561 33.3768 36.2103 34.2075 35.2167 35.1987C34.2234 36.1896 33.3907 37.3324 32.7532 38.5813C32.1042 39.8529 31.6927 41.1555 31.4406 42.555C31.1924 43.9333 31.1101 45.3392 31.0723 46.733C31.0551 47.3728 31.0476 48.0128 31.0437 48.6528C31.0391 49.4127 31 50.3566 31 51.1164L31.0002 59.6671L31 66.3397L31.0395 75.072C31.0395 75.8328 31.0391 76.5937 31.0437 77.3545C31.0476 77.9955 31.0551 78.6363 31.0724 79.277C31.1101 80.6731 31.1925 82.0815 31.441 83.4623C31.693 84.8629 32.1045 86.1666 32.7529 87.4391C33.3904 88.69 34.2233 89.8346 35.2167 90.827C36.2102 91.8194 37.3558 92.651 38.6078 93.2878C39.8825 93.9361 41.1883 94.3472 42.5913 94.5989C43.973 94.8469 45.3824 94.9292 46.7795 94.9668C47.421 94.9842 48.0625 94.9915 48.7042 94.9954C49.4659 95.0001 50.2275 94.9998 50.9892 94.9998L59.7384 95H66.3566L75.0888 94.9997C75.8491 94.9997 76.6093 95.0001 77.3695 94.9954C78.0099 94.9915 78.6501 94.9842 79.2904 94.9668C80.6853 94.9291 82.0925 94.8468 83.4722 94.5986C84.8716 94.3469 86.1742 93.9359 87.4457 93.2881C88.6956 92.6514 89.8392 91.8195 90.8307 90.827C91.8222 89.8347 92.6533 88.6904 93.2896 87.4396C93.9372 86.1665 94.3479 84.8622 94.5995 83.4606C94.8473 82.0804 94.9295 80.6726 94.9671 79.277C94.9845 78.6362 94.9918 77.9954 94.9956 77.3545C95.0004 76.5937 95 75.8328 95 75.072C95 75.072 94.9995 66.4939 94.9995 66.3397V59.6601C94.9995 59.5462 95 50.9322 95 50.9322" fill="url(#paint1_linear_202_579)" fill-opacity="0.01"/>
</g>
<g filter="url(#filter2_dd_202_579)">
<path fill-rule="evenodd" clip-rule="evenodd" d="M63.9408 43.5552C52.9969 43.5552 44.1499 52.4674 44.1499 63.4931C44.1499 72.3065 49.8185 79.7668 57.6823 82.4073C58.6655 82.6058 59.0257 81.9783 59.0257 81.4504C59.0257 80.9882 58.9932 79.4039 58.9932 77.7531C53.4879 78.9416 52.3415 75.3763 52.3415 75.3763C51.4567 73.0656 50.1458 72.4718 50.1458 72.4718C48.3439 71.2504 50.2771 71.2504 50.2771 71.2504C52.2758 71.3824 53.3247 73.297 53.3247 73.297C55.0937 76.3336 57.9444 75.4756 59.0913 74.9473C59.2549 73.6599 59.7795 72.7687 60.3366 72.2737C55.9457 71.8114 51.3259 70.095 51.3259 62.4366C51.3259 60.2579 52.1118 58.4755 53.3571 57.0892C53.1606 56.5942 52.4723 54.5472 53.5539 51.8075C53.5539 51.8075 55.225 51.2793 58.9928 53.8541C60.606 53.4177 62.2696 53.1956 63.9408 53.1938C65.6118 53.1938 67.3153 53.4251 68.8883 53.8541C72.6565 51.2793 74.3276 51.8075 74.3276 51.8075C75.4092 54.5472 74.7205 56.5942 74.524 57.0892C75.8021 58.4755 76.5556 60.2579 76.5556 62.4366C76.5556 70.095 71.9358 71.7782 67.5121 72.2737C68.2332 72.9008 68.8555 74.0889 68.8555 75.9706C68.8555 78.6443 68.823 80.7901 68.823 81.45C68.823 81.9783 69.1836 82.6058 70.1664 82.4077C78.0302 79.7664 83.6988 72.3065 83.6988 63.4931C83.7312 52.4674 74.8518 43.5552 63.9408 43.5552Z" fill="url(#paint2_linear_202_579)"/>
</g>
</g>
<defs>
<filter id="filter0_if_202_579" x="0" y="0" width="126" height="126" filterUnits="userSpaceOnUse" color-interpolation-filters="sRGB">
<feFlood flood-opacity="0" result="BackgroundImageFix"/>
<feBlend mode="normal" in="SourceGraphic" in2="BackgroundImageFix" result="shape"/>
<feColorMatrix in="SourceAlpha" type="matrix" values="0 0 0 0 0 0 0 0 0 0 0 0 0 0 0 0 0 0 127 0" result="hardAlpha"/>
<feOffset dx="-10" dy="10"/>
<feGaussianBlur stdDeviation="10"/>
<feComposite in2="hardAlpha" operator="arithmetic" k2="-1" k3="1"/>
<feColorMatrix type="matrix" values="0 0 0 0 1 0 0 0 0 1 0 0 0 0 1 0 0 0 0.24 0"/>
<feBlend mode="normal" in2="shape" result="effect1_innerShadow_202_579"/>
<feGaussianBlur stdDeviation="18" result="effect2_foregroundBlur_202_579"/>
</filter>
<filter id="filter1_ii_202_579" x="31" y="29.4466" width="64" height="66.6408" filterUnits="userSpaceOnUse" color-interpolation-filters="sRGB">
<feFlood flood-opacity="0" result="BackgroundImageFix"/>
<feBlend mode="normal" in="SourceGraphic" in2="BackgroundImageFix" result="shape"/>
<feColorMatrix in="SourceAlpha" type="matrix" values="0 0 0 0 0 0 0 0 0 0 0 0 0 0 0 0 0 0 127 0" result="hardAlpha"/>
<feOffset dy="-1.5534"/>
<feGaussianBlur stdDeviation="1.5534"/>
<feComposite in2="hardAlpha" operator="arithmetic" k2="-1" k3="1"/>
<feColorMatrix type="matrix" values="0 0 0 0 0 0 0 0 0 0 0 0 0 0 0 0 0 0 0.3 0"/>
<feBlend mode="normal" in2="shape" result="effect1_innerShadow_202_579"/>
<feColorMatrix in="SourceAlpha" type="matrix" values="0 0 0 0 0 0 0 0 0 0 0 0 0 0 0 0 0 0 127 0" result="hardAlpha"/>
<feOffset dy="1.08738"/>
<feGaussianBlur stdDeviation="2.48544"/>
<feComposite in2="hardAlpha" operator="arithmetic" k2="-1" k3="1"/>
<feColorMatrix type="matrix" values="0 0 0 0 1 0 0 0 0 1 0 0 0 0 1 0 0 0 0.15 0"/>
<feBlend mode="normal" in2="effect1_innerShadow_202_579" result="effect2_innerShadow_202_579"/>
</filter>
<filter id="filter2_dd_202_579" x="36.7514" y="38.0063" width="54.3461" height="53.6872" filterUnits="userSpaceOnUse" color-interpolation-filters="sRGB">
<feFlood flood-opacity="0" result="BackgroundImageFix"/>
<feColorMatrix in="SourceAlpha" type="matrix" values="0 0 0 0 0 0 0 0 0 0 0 0 0 0 0 0 0 0 127 0" result="hardAlpha"/>
<feMorphology radius="1.84963" operator="dilate" in="SourceAlpha" result="effect1_dropShadow_202_579"/>
<feOffset dy="1.84963"/>
<feGaussianBlur stdDeviation="2.77444"/>
<feColorMatrix type="matrix" values="0 0 0 0 0 0 0 0 0 0 0 0 0 0 0 0 0 0 0.15 0"/>
<feBlend mode="normal" in2="BackgroundImageFix" result="effect1_dropShadow_202_579"/>
<feColorMatrix in="SourceAlpha" type="matrix" values="0 0 0 0 0 0 0 0 0 0 0 0 0 0 0 0 0 0 127 0" result="hardAlpha"/>
<feOffset dy="0.924814"/>
<feGaussianBlur stdDeviation="0.924814"/>
<feColorMatrix type="matrix" values="0 0 0 0 0 0 0 0 0 0 0 0 0 0 0 0 0 0 0.3 0"/>
<feBlend mode="normal" in2="effect1_dropShadow_202_579" result="effect2_dropShadow_202_579"/>
<feBlend mode="normal" in="SourceGraphic" in2="effect2_dropShadow_202_579" result="shape"/>
</filter>
<radialGradient id="paint0_radial_202_579" cx="0" cy="0" r="1" gradientUnits="userSpaceOnUse" gradientTransform="translate(40.1538 29.7692) rotate(53.4711) scale(69.7858)">
<stop stop-color="#0053F4"/>
<stop offset="1" stop-color="#ACC3FF"/>
</radialGradient>
<linearGradient id="paint1_linear_202_579" x1="9.16385" y1="31" x2="9.16385" y2="138.672" gradientUnits="userSpaceOnUse">
<stop stop-color="white"/>
<stop offset="0.489516" stop-color="#EFEFEF"/>
<stop offset="1" stop-color="#C0C0C0"/>
</linearGradient>
<linearGradient id="paint2_linear_202_579" x1="63.9244" y1="43.5552" x2="63.9244" y2="82.4451" gradientUnits="userSpaceOnUse">
<stop stop-color="#F1F1F1"/>
<stop offset="1" stop-color="white" stop-opacity="0.42"/>
</linearGradient>
</defs>
</svg>
