<svg width="126" height="126" viewBox="0 0 126 126" fill="none" xmlns="http://www.w3.org/2000/svg">
<g filter="url(#filter0_if_202_572)">
<circle cx="63" cy="63" r="27" fill="url(#paint0_radial_202_572)"/>
</g>
<mask id="mask0_202_572" style="mask-type:luminance" maskUnits="userSpaceOnUse" x="31" y="31" width="64" height="64">
<path fill-rule="evenodd" clip-rule="evenodd" d="M95 50.9322C95 50.1724 95.0003 49.4126 94.9956 48.6528C94.9918 48.0127 94.9845 47.3728 94.9671 46.733C94.9295 45.3386 94.8472 43.9322 94.5992 42.5534C94.3477 41.1546 93.937 39.8528 93.2898 38.5819C92.6535 37.3327 91.8224 36.1897 90.8307 35.1987C89.8393 34.2077 88.6959 33.3771 87.4463 32.7412C86.174 32.0938 84.8708 31.6833 83.4705 31.4318C82.0915 31.1842 80.6848 31.1021 79.2904 31.0645C78.6501 31.0471 78.0099 31.0398 77.3695 31.0359C76.6093 31.0312 75.8491 31.0316 75.0888 31.0316L66.2619 31H59.66L50.9892 31.0316C50.2275 31.0316 49.4658 31.0312 48.7041 31.0359C48.0624 31.0398 47.421 31.0471 46.7795 31.0645C45.3819 31.1021 43.9719 31.1843 42.5897 31.4322C41.1875 31.6836 39.8823 32.094 38.6084 32.7409C37.3561 33.3768 36.2103 34.2075 35.2167 35.1987C34.2234 36.1896 33.3907 37.3324 32.7532 38.5813C32.1042 39.8529 31.6927 41.1555 31.4406 42.555C31.1924 43.9333 31.1101 45.3392 31.0723 46.733C31.0551 47.3728 31.0476 48.0128 31.0437 48.6528C31.0391 49.4127 31 50.3566 31 51.1164L31.0002 59.6671L31 66.3397L31.0395 75.072C31.0395 75.8328 31.0391 76.5937 31.0437 77.3545C31.0476 77.9955 31.0551 78.6363 31.0724 79.277C31.1101 80.6731 31.1925 82.0815 31.441 83.4623C31.693 84.8629 32.1045 86.1666 32.7529 87.4391C33.3904 88.69 34.2233 89.8346 35.2167 90.827C36.2102 91.8194 37.3558 92.651 38.6078 93.2878C39.8825 93.9361 41.1883 94.3472 42.5913 94.5989C43.973 94.8469 45.3824 94.9292 46.7795 94.9668C47.421 94.9842 48.0625 94.9915 48.7042 94.9954C49.4659 95.0001 50.2275 94.9998 50.9892 94.9998L59.7384 95H66.3566L75.0888 94.9997C75.8491 94.9997 76.6093 95.0001 77.3695 94.9954C78.0099 94.9915 78.6501 94.9842 79.2904 94.9668C80.6853 94.9291 82.0925 94.8468 83.4722 94.5986C84.8716 94.3469 86.1742 93.9359 87.4457 93.2881C88.6956 92.6514 89.8392 91.8195 90.8307 90.827C91.8222 89.8347 92.6533 88.6904 93.2896 87.4396C93.9372 86.1665 94.3479 84.8622 94.5995 83.4606C94.8473 82.0804 94.9295 80.6726 94.9671 79.277C94.9845 78.6362 94.9918 77.9954 94.9956 77.3545C95.0004 76.5937 95 75.8328 95 75.072C95 75.072 94.9995 66.4939 94.9995 66.3397V59.6601C94.9995 59.5462 95 50.9322 95 50.9322" fill="white"/>
</mask>
<g mask="url(#mask0_202_572)">
<rect x="26.4951" y="26.1846" width="70.9903" height="70.9903" fill="#101010"/>
<g filter="url(#filter1_ii_202_572)">
<path fill-rule="evenodd" clip-rule="evenodd" d="M95 50.9322C95 50.1724 95.0003 49.4126 94.9956 48.6528C94.9918 48.0127 94.9845 47.3728 94.9671 46.733C94.9295 45.3386 94.8472 43.9322 94.5992 42.5534C94.3477 41.1546 93.937 39.8528 93.2898 38.5819C92.6535 37.3327 91.8224 36.1897 90.8307 35.1987C89.8393 34.2077 88.6959 33.3771 87.4463 32.7412C86.174 32.0938 84.8708 31.6833 83.4705 31.4318C82.0915 31.1842 80.6848 31.1021 79.2904 31.0645C78.6501 31.0471 78.0099 31.0398 77.3695 31.0359C76.6093 31.0312 75.8491 31.0316 75.0888 31.0316L66.2619 31H59.66L50.9892 31.0316C50.2275 31.0316 49.4658 31.0312 48.7041 31.0359C48.0624 31.0398 47.421 31.0471 46.7795 31.0645C45.3819 31.1021 43.9719 31.1843 42.5897 31.4322C41.1875 31.6836 39.8823 32.094 38.6084 32.7409C37.3561 33.3768 36.2103 34.2075 35.2167 35.1987C34.2234 36.1896 33.3907 37.3324 32.7532 38.5813C32.1042 39.8529 31.6927 41.1555 31.4406 42.555C31.1924 43.9333 31.1101 45.3392 31.0723 46.733C31.0551 47.3728 31.0476 48.0128 31.0437 48.6528C31.0391 49.4127 31 50.3566 31 51.1164L31.0002 59.6671L31 66.3397L31.0395 75.072C31.0395 75.8328 31.0391 76.5937 31.0437 77.3545C31.0476 77.9955 31.0551 78.6363 31.0724 79.277C31.1101 80.6731 31.1925 82.0815 31.441 83.4623C31.693 84.8629 32.1045 86.1666 32.7529 87.4391C33.3904 88.69 34.2233 89.8346 35.2167 90.827C36.2102 91.8194 37.3558 92.651 38.6078 93.2878C39.8825 93.9361 41.1883 94.3472 42.5913 94.5989C43.973 94.8469 45.3824 94.9292 46.7795 94.9668C47.421 94.9842 48.0625 94.9915 48.7042 94.9954C49.4659 95.0001 50.2275 94.9998 50.9892 94.9998L59.7383 95H66.3566L75.0888 94.9997C75.8491 94.9997 76.6093 95.0001 77.3695 94.9954C78.0099 94.9915 78.6501 94.9842 79.2904 94.9668C80.6853 94.9291 82.0925 94.8468 83.4722 94.5986C84.8716 94.3469 86.1742 93.9359 87.4457 93.2881C88.6956 92.6514 89.8392 91.8195 90.8307 90.827C91.8222 89.8347 92.6533 88.6904 93.2896 87.4396C93.9372 86.1665 94.3479 84.8622 94.5995 83.4606C94.8473 82.0804 94.9295 80.6726 94.9671 79.277C94.9845 78.6362 94.9918 77.9954 94.9956 77.3545C95.0004 76.5937 95 75.8328 95 75.072C95 75.072 94.9995 66.4939 94.9995 66.3397V59.6601C94.9995 59.5462 95 50.9322 95 50.9322Z" fill="url(#paint1_linear_202_572)" fill-opacity="0.01"/>
</g>
<g filter="url(#filter2_dd_202_572)">
<path d="M63.0017 45C58.1131 45 57.4996 45.0214 55.5796 45.1088C53.6633 45.1965 52.3553 45.4999 51.2108 45.945C50.0269 46.4048 49.0227 47.0198 48.0222 48.0206C47.0209 49.0211 46.4059 50.0254 45.9446 51.2089C45.4984 52.3537 45.1946 53.6621 45.1084 55.5776C45.0225 57.4976 45 58.1115 45 63C45 67.8885 45.0218 68.5001 45.1088 70.4201C45.1969 72.3364 45.5003 73.6444 45.945 74.7889C46.4051 75.9727 47.0201 76.977 48.021 77.9775C49.0212 78.9788 50.0254 79.5953 51.2086 80.055C52.3538 80.5001 53.6622 80.8035 55.5781 80.8912C57.4981 80.9786 58.1113 81 62.9994 81C67.8884 81 68.5 80.9786 70.42 80.8912C72.3363 80.8035 73.6458 80.5001 74.7911 80.055C75.9746 79.5953 76.9773 78.9788 77.9775 77.9775C78.9787 76.977 79.5937 75.9728 80.055 74.7893C80.4975 73.6444 80.8012 72.336 80.8912 70.4205C80.9775 68.5005 81 67.8885 81 63C81 58.1115 80.9775 57.498 80.8912 55.578C80.8012 53.6618 80.4975 52.3537 80.055 51.2092C79.5937 50.0254 78.9787 49.0211 77.9775 48.0206C76.9762 47.0194 75.9749 46.4044 74.7899 45.945C73.6424 45.4999 72.3337 45.1965 70.4174 45.1088C68.4974 45.0214 67.8861 45 62.9961 45H63.0017ZM61.3869 48.2437C61.8662 48.243 62.4009 48.2437 63.0017 48.2437C67.8077 48.2437 68.3774 48.261 70.2753 48.3473C72.0303 48.4275 72.9828 48.7208 73.6173 48.9671C74.4573 49.2934 75.0562 49.6834 75.6858 50.3134C76.3158 50.9434 76.7058 51.5434 77.0328 52.3834C77.2792 53.0171 77.5728 53.9696 77.6527 55.7246C77.739 57.6221 77.7577 58.1921 77.7577 62.9959C77.7577 67.7996 77.739 68.3696 77.6527 70.2671C77.5725 72.0221 77.2792 72.9746 77.0328 73.6084C76.7066 74.4484 76.3158 75.0465 75.6858 75.6761C75.0558 76.3061 74.4577 76.6961 73.6173 77.0224C72.9835 77.2699 72.0303 77.5624 70.2753 77.6426C68.3777 77.7289 67.8077 77.7476 63.0017 77.7476C58.1953 77.7476 57.6256 77.7289 55.7281 77.6426C53.9731 77.5616 53.0206 77.2684 52.3857 77.022C51.5457 76.6957 50.9457 76.3058 50.3157 75.6758C49.6857 75.0458 49.2957 74.4473 48.9687 73.6069C48.7223 72.9731 48.4287 72.0206 48.3488 70.2656C48.2625 68.3681 48.2453 67.7981 48.2453 62.9914C48.2453 58.1846 48.2625 57.6176 48.3488 55.7201C48.429 53.9651 48.7223 53.0126 48.9687 52.3781C49.2949 51.5381 49.6857 50.9381 50.3157 50.3081C50.9457 49.6781 51.5457 49.2881 52.3857 48.9611C53.0202 48.7136 53.9731 48.4211 55.7281 48.3405C57.3886 48.2655 58.0321 48.243 61.3869 48.2393V48.2437ZM72.61 51.2325C71.4175 51.2325 70.45 52.1989 70.45 53.3917C70.45 54.5842 71.4175 55.5518 72.61 55.5518C73.8025 55.5518 74.7701 54.5842 74.7701 53.3917C74.7701 52.1992 73.8025 51.2318 72.61 51.2318V51.2325ZM63.0017 53.7562C57.8968 53.7562 53.7578 57.8951 53.7578 63C53.7578 68.1049 57.8968 72.2419 63.0017 72.2419C68.1066 72.2419 72.244 68.1049 72.244 63C72.244 57.8951 68.1066 53.7562 63.0017 53.7562ZM63.0017 57C66.3152 57 69.0017 59.6861 69.0017 63C69.0017 66.3135 66.3152 69 63.0017 69C59.6878 69 57.0016 66.3135 57.0016 63C57.0016 59.6861 59.6878 57 63.0017 57Z" fill="url(#paint2_linear_202_572)"/>
<path d="M63.0017 45C58.1131 45 57.4996 45.0214 55.5796 45.1088C53.6633 45.1965 52.3553 45.4999 51.2108 45.945C50.0269 46.4048 49.0227 47.0198 48.0222 48.0206C47.0209 49.0211 46.4059 50.0254 45.9446 51.2089C45.4984 52.3537 45.1946 53.6621 45.1084 55.5776C45.0225 57.4976 45 58.1115 45 63C45 67.8885 45.0218 68.5001 45.1088 70.4201C45.1969 72.3364 45.5003 73.6444 45.945 74.7889C46.4051 75.9727 47.0201 76.977 48.021 77.9775C49.0212 78.9788 50.0254 79.5953 51.2086 80.055C52.3538 80.5001 53.6622 80.8035 55.5781 80.8912C57.4981 80.9786 58.1113 81 62.9994 81C67.8884 81 68.5 80.9786 70.42 80.8912C72.3363 80.8035 73.6458 80.5001 74.7911 80.055C75.9746 79.5953 76.9773 78.9788 77.9775 77.9775C78.9787 76.977 79.5937 75.9728 80.055 74.7893C80.4975 73.6444 80.8012 72.336 80.8912 70.4205C80.9775 68.5005 81 67.8885 81 63C81 58.1115 80.9775 57.498 80.8912 55.578C80.8012 53.6618 80.4975 52.3537 80.055 51.2092C79.5937 50.0254 78.9787 49.0211 77.9775 48.0206C76.9762 47.0194 75.9749 46.4044 74.7899 45.945C73.6424 45.4999 72.3337 45.1965 70.4174 45.1088C68.4974 45.0214 67.8861 45 62.9961 45H63.0017ZM61.3869 48.2437C61.8662 48.243 62.4009 48.2437 63.0017 48.2437C67.8077 48.2437 68.3774 48.261 70.2753 48.3473C72.0303 48.4275 72.9828 48.7208 73.6173 48.9671C74.4573 49.2934 75.0562 49.6834 75.6858 50.3134C76.3158 50.9434 76.7058 51.5434 77.0328 52.3834C77.2792 53.0171 77.5728 53.9696 77.6527 55.7246C77.739 57.6221 77.7577 58.1921 77.7577 62.9959C77.7577 67.7996 77.739 68.3696 77.6527 70.2671C77.5725 72.0221 77.2792 72.9746 77.0328 73.6084C76.7066 74.4484 76.3158 75.0465 75.6858 75.6761C75.0558 76.3061 74.4577 76.6961 73.6173 77.0224C72.9835 77.2699 72.0303 77.5624 70.2753 77.6426C68.3777 77.7289 67.8077 77.7476 63.0017 77.7476C58.1953 77.7476 57.6256 77.7289 55.7281 77.6426C53.9731 77.5616 53.0206 77.2684 52.3857 77.022C51.5457 76.6957 50.9457 76.3058 50.3157 75.6758C49.6857 75.0458 49.2957 74.4473 48.9687 73.6069C48.7223 72.9731 48.4287 72.0206 48.3488 70.2656C48.2625 68.3681 48.2453 67.7981 48.2453 62.9914C48.2453 58.1846 48.2625 57.6176 48.3488 55.7201C48.429 53.9651 48.7223 53.0126 48.9687 52.3781C49.2949 51.5381 49.6857 50.9381 50.3157 50.3081C50.9457 49.6781 51.5457 49.2881 52.3857 48.9611C53.0202 48.7136 53.9731 48.4211 55.7281 48.3405C57.3886 48.2655 58.0321 48.243 61.3869 48.2393V48.2437ZM72.61 51.2325C71.4175 51.2325 70.45 52.1989 70.45 53.3917C70.45 54.5842 71.4175 55.5518 72.61 55.5518C73.8025 55.5518 74.7701 54.5842 74.7701 53.3917C74.7701 52.1992 73.8025 51.2318 72.61 51.2318V51.2325ZM63.0017 53.7562C57.8968 53.7562 53.7578 57.8951 53.7578 63C53.7578 68.1049 57.8968 72.2419 63.0017 72.2419C68.1066 72.2419 72.244 68.1049 72.244 63C72.244 57.8951 68.1066 53.7562 63.0017 53.7562ZM63.0017 57C66.3152 57 69.0017 59.6861 69.0017 63C69.0017 66.3135 66.3152 69 63.0017 69C59.6878 69 57.0016 66.3135 57.0016 63C57.0016 59.6861 59.6878 57 63.0017 57Z" fill="url(#paint3_linear_202_572)" fill-opacity="0.6"/>
</g>
</g>
<defs>
<filter id="filter0_if_202_572" x="0" y="0" width="126" height="126" filterUnits="userSpaceOnUse" color-interpolation-filters="sRGB">
<feFlood flood-opacity="0" result="BackgroundImageFix"/>
<feBlend mode="normal" in="SourceGraphic" in2="BackgroundImageFix" result="shape"/>
<feColorMatrix in="SourceAlpha" type="matrix" values="0 0 0 0 0 0 0 0 0 0 0 0 0 0 0 0 0 0 127 0" result="hardAlpha"/>
<feOffset dx="-10" dy="10"/>
<feGaussianBlur stdDeviation="10"/>
<feComposite in2="hardAlpha" operator="arithmetic" k2="-1" k3="1"/>
<feColorMatrix type="matrix" values="0 0 0 0 1 0 0 0 0 1 0 0 0 0 1 0 0 0 0.24 0"/>
<feBlend mode="normal" in2="shape" result="effect1_innerShadow_202_572"/>
<feGaussianBlur stdDeviation="18" result="effect2_foregroundBlur_202_572"/>
</filter>
<filter id="filter1_ii_202_572" x="31" y="29.3203" width="64" height="66.8555" filterUnits="userSpaceOnUse" color-interpolation-filters="sRGB">
<feFlood flood-opacity="0" result="BackgroundImageFix"/>
<feBlend mode="normal" in="SourceGraphic" in2="BackgroundImageFix" result="shape"/>
<feColorMatrix in="SourceAlpha" type="matrix" values="0 0 0 0 0 0 0 0 0 0 0 0 0 0 0 0 0 0 127 0" result="hardAlpha"/>
<feOffset dy="-1.67969"/>
<feGaussianBlur stdDeviation="1.67969"/>
<feComposite in2="hardAlpha" operator="arithmetic" k2="-1" k3="1"/>
<feColorMatrix type="matrix" values="0 0 0 0 0 0 0 0 0 0 0 0 0 0 0 0 0 0 0.3 0"/>
<feBlend mode="normal" in2="shape" result="effect1_innerShadow_202_572"/>
<feColorMatrix in="SourceAlpha" type="matrix" values="0 0 0 0 0 0 0 0 0 0 0 0 0 0 0 0 0 0 127 0" result="hardAlpha"/>
<feOffset dy="1.17578"/>
<feGaussianBlur stdDeviation="2.6875"/>
<feComposite in2="hardAlpha" operator="arithmetic" k2="-1" k3="1"/>
<feColorMatrix type="matrix" values="0 0 0 0 1 0 0 0 0 1 0 0 0 0 1 0 0 0 0.15 0"/>
<feBlend mode="normal" in2="effect1_innerShadow_202_572" result="effect2_innerShadow_202_572"/>
</filter>
<filter id="filter2_dd_202_572" x="38.3997" y="40.0498" width="49.2005" height="49.2005" filterUnits="userSpaceOnUse" color-interpolation-filters="sRGB">
<feFlood flood-opacity="0" result="BackgroundImageFix"/>
<feColorMatrix in="SourceAlpha" type="matrix" values="0 0 0 0 0 0 0 0 0 0 0 0 0 0 0 0 0 0 127 0" result="hardAlpha"/>
<feMorphology radius="1.65007" operator="dilate" in="SourceAlpha" result="effect1_dropShadow_202_572"/>
<feOffset dy="1.65007"/>
<feGaussianBlur stdDeviation="2.4751"/>
<feColorMatrix type="matrix" values="0 0 0 0 0 0 0 0 0 0 0 0 0 0 0 0 0 0 0.15 0"/>
<feBlend mode="normal" in2="BackgroundImageFix" result="effect1_dropShadow_202_572"/>
<feColorMatrix in="SourceAlpha" type="matrix" values="0 0 0 0 0 0 0 0 0 0 0 0 0 0 0 0 0 0 127 0" result="hardAlpha"/>
<feOffset dy="0.825034"/>
<feGaussianBlur stdDeviation="0.825034"/>
<feColorMatrix type="matrix" values="0 0 0 0 0 0 0 0 0 0 0 0 0 0 0 0 0 0 0.3 0"/>
<feBlend mode="normal" in2="effect1_dropShadow_202_572" result="effect2_dropShadow_202_572"/>
<feBlend mode="normal" in="SourceGraphic" in2="effect2_dropShadow_202_572" result="shape"/>
</filter>
<radialGradient id="paint0_radial_202_572" cx="0" cy="0" r="1" gradientUnits="userSpaceOnUse" gradientTransform="translate(40.1538 29.7692) rotate(53.4711) scale(69.7858)">
<stop stop-color="#A50295"/>
<stop offset="0.5" stop-color="white"/>
<stop offset="1" stop-color="#E66100"/>
</radialGradient>
<linearGradient id="paint1_linear_202_572" x1="9.16385" y1="31" x2="9.16385" y2="138.672" gradientUnits="userSpaceOnUse">
<stop stop-color="white"/>
<stop offset="0.489516" stop-color="#EFEFEF"/>
<stop offset="1" stop-color="#C0C0C0"/>
</linearGradient>
<linearGradient id="paint2_linear_202_572" x1="63" y1="56.1427" x2="63" y2="81" gradientUnits="userSpaceOnUse">
<stop stop-color="white"/>
<stop offset="1" stop-color="#CEF3FF"/>
</linearGradient>
<linearGradient id="paint3_linear_202_572" x1="63" y1="45" x2="63" y2="81" gradientUnits="userSpaceOnUse">
<stop stop-opacity="0.3"/>
<stop offset="1"/>
</linearGradient>
</defs>
</svg>
