<svg width="43" height="59" viewBox="0 0 43 59" fill="none" xmlns="http://www.w3.org/2000/svg">
<path id="Union" fill-rule="evenodd" clip-rule="evenodd" d="M27.6457 0.870972C27.6457 0.870972 33.5833 6.81039 22.0142 15.9439C14.8403 21.6092 17.4962 25.3916 20.0456 29.0224L20.0457 29.0224C20.7932 30.087 21.5315 31.1386 22.0103 32.2207C16.5952 27.3347 12.6211 23.0337 15.2872 19.0307C16.5892 17.0756 18.6581 15.4556 20.7513 13.8166C24.9491 10.5297 29.2443 7.1665 27.6457 0.870972ZM24.5852 28.1946C27.3416 31.368 23.8611 34.2239 23.8611 34.2239C23.8611 34.2239 30.8598 30.6109 27.6456 26.0865C27.5166 25.9052 27.389 25.7278 27.2637 25.5538C24.473 21.6774 22.8768 19.4602 34.8044 12.5426C34.8046 12.5425 15.2416 17.4284 24.5852 28.1946ZM14.4284 45.0639C14.4284 45.0639 12.2446 46.3338 15.9825 46.7636C20.5107 47.2802 22.8251 47.2061 27.8153 46.2616C27.8153 46.2616 29.1272 47.0842 30.9595 47.7967C19.7728 52.5912 5.64186 47.519 14.4284 45.0639ZM13.0614 38.8075C13.0614 38.8075 10.6122 40.6205 14.3528 41.0074C19.19 41.5065 23.0101 41.5473 29.6202 40.2744C29.6202 40.2744 30.5347 41.2013 31.9723 41.7082C18.4468 45.6632 3.38204 42.0201 13.0614 38.8075ZM37.6007 52.0531C40.9965 51.0231 39.3805 49.6914 39.3805 49.6914C45.2968 52.36 26.5276 57.7245 3.7193 54.0256C-4.64412 52.6698 7.74468 47.936 10.0122 49.5334C10.0122 49.5334 9.29538 49.4827 8.04102 49.7547C6.83826 50.013 3.01465 51.244 5.0536 52.1312C10.7256 54.5998 31.1436 54.0092 37.6007 52.0531ZM11.8006 35.6877C5.09257 34.7919 15.4785 32.3251 15.4785 32.3251C15.4785 32.3251 11.4452 32.0531 6.48478 34.4509C0.619288 37.2882 20.9935 38.5787 31.5402 35.8048C32.6367 35.0562 34.1523 34.4072 34.1523 34.4072C34.1523 34.4072 29.8363 35.1779 25.5381 35.5405C20.279 35.9811 14.6329 36.0669 11.8006 35.6877ZM36.4137 32.5355C39.8738 31.814 44.8307 37.168 34.1095 42.7392C34.0601 42.8719 33.8939 43.0201 33.8939 43.0201C48.2126 39.2558 42.9484 29.7518 36.1035 32.1583C35.5025 32.3718 35.1875 32.8649 35.1875 32.8649C35.1875 32.8649 35.5656 32.712 36.4137 32.5355ZM43.0001 52.6009C42.626 57.4702 26.8229 58.4944 16.5319 57.8357C9.83912 57.4065 8.48126 56.3359 8.45327 56.3138L8.45283 56.3135C14.8782 57.3728 25.7117 57.5657 34.4951 55.9129C42.2808 54.4467 43.0001 52.6009 43.0001 52.6009Z" fill="white"/>
</svg>
