<svg width="126" height="126" viewBox="0 0 126 126" fill="none" xmlns="http://www.w3.org/2000/svg">
<g filter="url(#filter0_if_235_779)">
<circle cx="63" cy="63" r="27" fill="url(#paint0_radial_235_779)"/>
</g>
<mask id="mask0_235_779" style="mask-type:luminance" maskUnits="userSpaceOnUse" x="31" y="31" width="64" height="64">
<path fill-rule="evenodd" clip-rule="evenodd" d="M95 50.9322C95 50.1724 95.0003 49.4126 94.9956 48.6528C94.9918 48.0127 94.9845 47.3728 94.9671 46.733C94.9295 45.3386 94.8472 43.9322 94.5992 42.5534C94.3477 41.1546 93.937 39.8528 93.2898 38.5819C92.6535 37.3327 91.8224 36.1897 90.8307 35.1987C89.8393 34.2077 88.6959 33.3771 87.4463 32.7412C86.174 32.0938 84.8708 31.6833 83.4705 31.4318C82.0915 31.1842 80.6848 31.1021 79.2904 31.0645C78.6501 31.0471 78.0099 31.0398 77.3695 31.0359C76.6093 31.0312 75.8491 31.0316 75.0888 31.0316L66.2619 31H59.66L50.9892 31.0316C50.2275 31.0316 49.4658 31.0312 48.7041 31.0359C48.0624 31.0398 47.421 31.0471 46.7795 31.0645C45.3819 31.1021 43.9719 31.1843 42.5897 31.4322C41.1875 31.6836 39.8823 32.094 38.6084 32.7409C37.3561 33.3768 36.2103 34.2075 35.2167 35.1987C34.2234 36.1896 33.3907 37.3324 32.7532 38.5813C32.1042 39.8529 31.6927 41.1555 31.4406 42.555C31.1924 43.9333 31.1101 45.3392 31.0723 46.733C31.0551 47.3728 31.0476 48.0128 31.0437 48.6528C31.0391 49.4127 31 50.3566 31 51.1164L31.0002 59.6671L31 66.3397L31.0395 75.072C31.0395 75.8328 31.0391 76.5937 31.0437 77.3545C31.0476 77.9955 31.0551 78.6363 31.0724 79.277C31.1101 80.6731 31.1925 82.0815 31.441 83.4623C31.693 84.8629 32.1045 86.1666 32.7529 87.4391C33.3904 88.69 34.2233 89.8346 35.2167 90.827C36.2102 91.8194 37.3558 92.651 38.6078 93.2878C39.8825 93.9361 41.1883 94.3472 42.5913 94.5989C43.973 94.8469 45.3824 94.9292 46.7795 94.9668C47.421 94.9842 48.0625 94.9915 48.7042 94.9954C49.4659 95.0001 50.2275 94.9998 50.9892 94.9998L59.7383 95H66.3566L75.0888 94.9997C75.8491 94.9997 76.6093 95.0001 77.3695 94.9954C78.0099 94.9915 78.6501 94.9842 79.2904 94.9668C80.6853 94.9291 82.0925 94.8468 83.4722 94.5986C84.8716 94.3469 86.1742 93.9359 87.4457 93.2881C88.6956 92.6514 89.8392 91.8195 90.8307 90.827C91.8222 89.8347 92.6533 88.6904 93.2896 87.4396C93.9372 86.1665 94.3479 84.8622 94.5995 83.4606C94.8473 82.0804 94.9295 80.6726 94.9671 79.277C94.9845 78.6362 94.9918 77.9954 94.9956 77.3545C95.0004 76.5937 95 75.8328 95 75.072C95 75.072 94.9995 66.4939 94.9995 66.3397V59.6601C94.9995 59.5462 95 50.9322 95 50.9322Z" fill="white"/>
</mask>
<g mask="url(#mask0_235_779)">
<rect x="26.4951" y="26.1846" width="70.9903" height="70.9903" fill="#101010"/>
<g filter="url(#filter1_ii_235_779)">
<path fill-rule="evenodd" clip-rule="evenodd" d="M95 50.9322C95 50.1724 95.0003 49.4126 94.9956 48.6528C94.9918 48.0127 94.9845 47.3728 94.9671 46.733C94.9295 45.3386 94.8472 43.9322 94.5992 42.5534C94.3477 41.1546 93.937 39.8528 93.2898 38.5819C92.6535 37.3327 91.8224 36.1897 90.8307 35.1987C89.8393 34.2077 88.6959 33.3771 87.4463 32.7412C86.174 32.0938 84.8708 31.6833 83.4705 31.4318C82.0915 31.1842 80.6848 31.1021 79.2904 31.0645C78.6501 31.0471 78.0099 31.0398 77.3695 31.0359C76.6093 31.0312 75.8491 31.0316 75.0888 31.0316L66.2619 31H59.66L50.9892 31.0316C50.2275 31.0316 49.4658 31.0312 48.7041 31.0359C48.0624 31.0398 47.421 31.0471 46.7795 31.0645C45.3819 31.1021 43.9719 31.1843 42.5897 31.4322C41.1875 31.6836 39.8823 32.094 38.6084 32.7409C37.3561 33.3768 36.2103 34.2075 35.2167 35.1987C34.2234 36.1896 33.3907 37.3324 32.7532 38.5813C32.1042 39.8529 31.6927 41.1555 31.4406 42.555C31.1924 43.9333 31.1101 45.3392 31.0723 46.733C31.0551 47.3728 31.0476 48.0128 31.0437 48.6528C31.0391 49.4127 31 50.3566 31 51.1164L31.0002 59.6671L31 66.3397L31.0395 75.072C31.0395 75.8328 31.0391 76.5937 31.0437 77.3545C31.0476 77.9955 31.0551 78.6363 31.0724 79.277C31.1101 80.6731 31.1925 82.0815 31.441 83.4623C31.693 84.8629 32.1045 86.1666 32.7529 87.4391C33.3904 88.69 34.2233 89.8346 35.2167 90.827C36.2102 91.8194 37.3558 92.651 38.6078 93.2878C39.8825 93.9361 41.1883 94.3472 42.5913 94.5989C43.973 94.8469 45.3824 94.9292 46.7795 94.9668C47.421 94.9842 48.0625 94.9915 48.7042 94.9954C49.4659 95.0001 50.2275 94.9998 50.9892 94.9998L59.7383 95H66.3566L75.0888 94.9997C75.8491 94.9997 76.6093 95.0001 77.3695 94.9954C78.0099 94.9915 78.6501 94.9842 79.2904 94.9668C80.6853 94.9291 82.0925 94.8468 83.4722 94.5986C84.8716 94.3469 86.1742 93.9359 87.4457 93.2881C88.6956 92.6514 89.8392 91.8195 90.8307 90.827C91.8222 89.8347 92.6533 88.6904 93.2896 87.4396C93.9372 86.1665 94.3479 84.8622 94.5995 83.4606C94.8473 82.0804 94.9295 80.6726 94.9671 79.277C94.9845 78.6362 94.9918 77.9954 94.9956 77.3545C95.0004 76.5937 95 75.8328 95 75.072C95 75.072 94.9995 66.4939 94.9995 66.3397V59.6601C94.9995 59.5462 95 50.9322 95 50.9322Z" fill="url(#paint1_linear_235_779)" fill-opacity="0.01"/>
</g>
<g filter="url(#filter2_d_235_779)">
<path d="M80 65C80 63.8975 79.0588 63 77.8973 63H61.1027C59.9412 63 59 63.8975 59 65C59 66.1025 59.9395 67 61.1027 67H77.8973C79.0588 67.0015 80 66.104 80 65Z" fill="#F8F5F5"/>
<path d="M80 65C80 63.8975 79.0588 63 77.8973 63H61.1027C59.9412 63 59 63.8975 59 65C59 66.1025 59.9395 67 61.1027 67H77.8973C79.0588 67.0015 80 66.104 80 65Z" fill="url(#paint2_linear_235_779)" fill-opacity="0.6"/>
</g>
<g filter="url(#filter3_d_235_779)">
<path d="M48.5361 71.3111L55.9168 78.5799C57.5818 80.2116 59.8835 81 62.4247 81C64.9659 81 67.2676 80.1466 68.9361 78.5099L73.3648 74.1146C74.2376 73.2579 74.2068 71.8395 73.2981 70.9478C72.3894 70.056 70.9451 70.026 70.0741 70.8828L65.4947 75.228C64.7041 76.0064 63.6089 76.3314 62.399 76.3314C61.1892 76.3314 60.0957 76.0064 59.3017 75.228L51.9466 67.9559C51.1543 67.1776 50.7556 66.0392 50.7556 64.8508C50.7556 63.6624 51.1543 62.589 51.9466 61.8106L59.2794 54.5102C60.0717 53.7318 61.1892 53.4351 62.3973 53.4351C63.6055 53.4351 64.7007 53.7601 65.493 54.5385L70.0724 58.8821C70.9451 59.7405 72.3894 59.7105 73.2981 58.8187C74.2068 57.9254 74.2376 56.507 73.3648 55.6502L68.9361 51.2567C67.8102 50.1609 66.3925 49.3931 64.8427 49.0399C64.8179 49.0349 64.8086 49.0042 64.8266 48.9863L68.972 44.8563C69.8482 43.9996 69.8174 42.5795 68.9087 41.6878C68 40.7961 66.554 40.7677 65.6795 41.6244L48.5361 58.4587C46.871 60.0955 46 62.3539 46 64.8508C46 67.3476 46.871 69.6777 48.5361 71.3111Z" fill="#F8F5F5"/>
<path d="M48.5361 71.3111L55.9168 78.5799C57.5818 80.2116 59.8835 81 62.4247 81C64.9659 81 67.2676 80.1466 68.9361 78.5099L73.3648 74.1146C74.2376 73.2579 74.2068 71.8395 73.2981 70.9478C72.3894 70.056 70.9451 70.026 70.0741 70.8828L65.4947 75.228C64.7041 76.0064 63.6089 76.3314 62.399 76.3314C61.1892 76.3314 60.0957 76.0064 59.3017 75.228L51.9466 67.9559C51.1543 67.1776 50.7556 66.0392 50.7556 64.8508C50.7556 63.6624 51.1543 62.589 51.9466 61.8106L59.2794 54.5102C60.0717 53.7318 61.1892 53.4351 62.3973 53.4351C63.6055 53.4351 64.7007 53.7601 65.493 54.5385L70.0724 58.8821C70.9451 59.7405 72.3894 59.7105 73.2981 58.8187C74.2068 57.9254 74.2376 56.507 73.3648 55.6502L68.9361 51.2567C67.8102 50.1609 66.3925 49.3931 64.8427 49.0399C64.8179 49.0349 64.8086 49.0042 64.8266 48.9863L68.972 44.8563C69.8482 43.9996 69.8174 42.5795 68.9087 41.6878C68 40.7961 66.554 40.7677 65.6795 41.6244L48.5361 58.4587C46.871 60.0955 46 62.3539 46 64.8508C46 67.3476 46.871 69.6777 48.5361 71.3111Z" fill="url(#paint3_linear_235_779)" fill-opacity="0.64"/>
</g>
<g filter="url(#filter4_d_235_779)">
<path d="M56.7059 79.6944C56.4049 79.5293 56.1292 79.3232 55.8871 79.0821C53.5948 76.8211 51.2922 74.5704 49.005 72.3026C45.5692 68.8968 45.0285 63.9288 47.6473 59.8869C48.0657 59.2691 48.5517 58.6981 49.0966 58.184L65.7197 41.8282C66.7993 40.7664 68.3074 40.7223 69.311 41.7146C70.2783 42.6695 70.2213 44.1824 69.1762 45.2188C67.9127 46.4708 66.6475 47.7197 65.3823 48.9699C65.2543 49.0964 65.1653 49.259 65.0492 49.3966C64.9731 49.4868 64.8821 49.5655 64.7989 49.6491C63.3082 51.1349 61.7759 52.5817 60.3059 54.0896C60.1142 54.2863 59.8533 54.405 59.6633 54.6069C57.2052 57.0205 54.6121 59.7546 52.1886 62.2004C50.2279 64.1798 51.0398 66.9682 53.0523 68.9849C55.3117 71.251 56.9702 73.3475 59.2539 75.5931C59.3425 75.6802 59.4332 75.7652 59.5236 75.8505C59.5787 75.9026 59.6398 75.9479 59.6989 75.9953C60.4147 76.5692 60.4051 78.0775 59.9224 78.7632C59.3679 79.5519 58.6441 80.0353 57.6197 79.998C57.276 79.9878 56.9927 79.8521 56.7059 79.6944Z" fill="#F8F5F5"/>
<path d="M56.7059 79.6944C56.4049 79.5293 56.1292 79.3232 55.8871 79.0821C53.5948 76.8211 51.2922 74.5704 49.005 72.3026C45.5692 68.8968 45.0285 63.9288 47.6473 59.8869C48.0657 59.2691 48.5517 58.6981 49.0966 58.184L65.7197 41.8282C66.7993 40.7664 68.3074 40.7223 69.311 41.7146C70.2783 42.6695 70.2213 44.1824 69.1762 45.2188C67.9127 46.4708 66.6475 47.7197 65.3823 48.9699C65.2543 49.0964 65.1653 49.259 65.0492 49.3966C64.9731 49.4868 64.8821 49.5655 64.7989 49.6491C63.3082 51.1349 61.7759 52.5817 60.3059 54.0896C60.1142 54.2863 59.8533 54.405 59.6633 54.6069C57.2052 57.0205 54.6121 59.7546 52.1886 62.2004C50.2279 64.1798 51.0398 66.9682 53.0523 68.9849C55.3117 71.251 56.9702 73.3475 59.2539 75.5931C59.3425 75.6802 59.4332 75.7652 59.5236 75.8505C59.5787 75.9026 59.6398 75.9479 59.6989 75.9953C60.4147 76.5692 60.4051 78.0775 59.9224 78.7632C59.3679 79.5519 58.6441 80.0353 57.6197 79.998C57.276 79.9878 56.9927 79.8521 56.7059 79.6944Z" fill="url(#paint4_linear_235_779)" fill-opacity="0.64"/>
</g>
</g>
<defs>
<filter id="filter0_if_235_779" x="0" y="0" width="126" height="126" filterUnits="userSpaceOnUse" color-interpolation-filters="sRGB">
<feFlood flood-opacity="0" result="BackgroundImageFix"/>
<feBlend mode="normal" in="SourceGraphic" in2="BackgroundImageFix" result="shape"/>
<feColorMatrix in="SourceAlpha" type="matrix" values="0 0 0 0 0 0 0 0 0 0 0 0 0 0 0 0 0 0 127 0" result="hardAlpha"/>
<feOffset dx="-10" dy="10"/>
<feGaussianBlur stdDeviation="10"/>
<feComposite in2="hardAlpha" operator="arithmetic" k2="-1" k3="1"/>
<feColorMatrix type="matrix" values="0 0 0 0 1 0 0 0 0 1 0 0 0 0 1 0 0 0 0.24 0"/>
<feBlend mode="normal" in2="shape" result="effect1_innerShadow_235_779"/>
<feGaussianBlur stdDeviation="18" result="effect2_foregroundBlur_235_779"/>
</filter>
<filter id="filter1_ii_235_779" x="31" y="29.4466" width="64" height="66.6408" filterUnits="userSpaceOnUse" color-interpolation-filters="sRGB">
<feFlood flood-opacity="0" result="BackgroundImageFix"/>
<feBlend mode="normal" in="SourceGraphic" in2="BackgroundImageFix" result="shape"/>
<feColorMatrix in="SourceAlpha" type="matrix" values="0 0 0 0 0 0 0 0 0 0 0 0 0 0 0 0 0 0 127 0" result="hardAlpha"/>
<feOffset dy="-1.5534"/>
<feGaussianBlur stdDeviation="1.5534"/>
<feComposite in2="hardAlpha" operator="arithmetic" k2="-1" k3="1"/>
<feColorMatrix type="matrix" values="0 0 0 0 0 0 0 0 0 0 0 0 0 0 0 0 0 0 0.3 0"/>
<feBlend mode="normal" in2="shape" result="effect1_innerShadow_235_779"/>
<feColorMatrix in="SourceAlpha" type="matrix" values="0 0 0 0 0 0 0 0 0 0 0 0 0 0 0 0 0 0 127 0" result="hardAlpha"/>
<feOffset dy="1.08738"/>
<feGaussianBlur stdDeviation="2.48544"/>
<feComposite in2="hardAlpha" operator="arithmetic" k2="-1" k3="1"/>
<feColorMatrix type="matrix" values="0 0 0 0 1 0 0 0 0 1 0 0 0 0 1 0 0 0 0.15 0"/>
<feBlend mode="normal" in2="effect1_innerShadow_235_779" result="effect2_innerShadow_235_779"/>
</filter>
<filter id="filter2_d_235_779" x="55.5825" y="61.6019" width="28.767" height="11.767" filterUnits="userSpaceOnUse" color-interpolation-filters="sRGB">
<feFlood flood-opacity="0" result="BackgroundImageFix"/>
<feColorMatrix in="SourceAlpha" type="matrix" values="0 0 0 0 0 0 0 0 0 0 0 0 0 0 0 0 0 0 127 0" result="hardAlpha"/>
<feOffset dx="0.466019" dy="2.48544"/>
<feGaussianBlur stdDeviation="1.94175"/>
<feColorMatrix type="matrix" values="0 0 0 0 0 0 0 0 0 0.0833333 0 0 0 0 0.166667 0 0 0 0.2 0"/>
<feBlend mode="normal" in2="BackgroundImageFix" result="effect1_dropShadow_235_779"/>
<feBlend mode="normal" in="SourceGraphic" in2="effect1_dropShadow_235_779" result="shape"/>
</filter>
<filter id="filter3_d_235_779" x="42.5825" y="39.6019" width="35.767" height="47.767" filterUnits="userSpaceOnUse" color-interpolation-filters="sRGB">
<feFlood flood-opacity="0" result="BackgroundImageFix"/>
<feColorMatrix in="SourceAlpha" type="matrix" values="0 0 0 0 0 0 0 0 0 0 0 0 0 0 0 0 0 0 127 0" result="hardAlpha"/>
<feOffset dx="0.466019" dy="2.48544"/>
<feGaussianBlur stdDeviation="1.94175"/>
<feColorMatrix type="matrix" values="0 0 0 0 0 0 0 0 0 0.0833333 0 0 0 0 0.166667 0 0 0 0.2 0"/>
<feBlend mode="normal" in2="BackgroundImageFix" result="effect1_dropShadow_235_779"/>
<feBlend mode="normal" in="SourceGraphic" in2="effect1_dropShadow_235_779" result="shape"/>
</filter>
<filter id="filter4_d_235_779" x="42.5825" y="39.6019" width="31.767" height="46.767" filterUnits="userSpaceOnUse" color-interpolation-filters="sRGB">
<feFlood flood-opacity="0" result="BackgroundImageFix"/>
<feColorMatrix in="SourceAlpha" type="matrix" values="0 0 0 0 0 0 0 0 0 0 0 0 0 0 0 0 0 0 127 0" result="hardAlpha"/>
<feOffset dx="0.466019" dy="2.48544"/>
<feGaussianBlur stdDeviation="1.94175"/>
<feColorMatrix type="matrix" values="0 0 0 0 0 0 0 0 0 0.0833333 0 0 0 0 0.166667 0 0 0 0.2 0"/>
<feBlend mode="normal" in2="BackgroundImageFix" result="effect1_dropShadow_235_779"/>
<feBlend mode="normal" in="SourceGraphic" in2="effect1_dropShadow_235_779" result="shape"/>
</filter>
<radialGradient id="paint0_radial_235_779" cx="0" cy="0" r="1" gradientUnits="userSpaceOnUse" gradientTransform="translate(-17 -33) rotate(49.6742) scale(169.208)">
<stop offset="0.487222" stop-color="#EBA340"/>
<stop offset="0.577222" stop-color="white"/>
<stop offset="0.75" stop-color="#EBA340"/>
<stop offset="1" stop-color="#FFA800"/>
</radialGradient>
<linearGradient id="paint1_linear_235_779" x1="9.16385" y1="31" x2="9.16385" y2="138.672" gradientUnits="userSpaceOnUse">
<stop stop-color="white"/>
<stop offset="0.489516" stop-color="#EFEFEF"/>
<stop offset="1" stop-color="#C0C0C0"/>
</linearGradient>
<linearGradient id="paint2_linear_235_779" x1="69.5" y1="63" x2="69.5" y2="67" gradientUnits="userSpaceOnUse">
<stop stop-opacity="0.04"/>
<stop offset="0.937212"/>
</linearGradient>
<linearGradient id="paint3_linear_235_779" x1="60" y1="41" x2="60" y2="81" gradientUnits="userSpaceOnUse">
<stop stop-opacity="0.4"/>
<stop offset="1"/>
</linearGradient>
<linearGradient id="paint4_linear_235_779" x1="58" y1="41" x2="58" y2="80" gradientUnits="userSpaceOnUse">
<stop stop-opacity="0"/>
<stop offset="1"/>
</linearGradient>
</defs>
</svg>
