<svg width="126" height="126" viewBox="0 0 126 126" fill="none" xmlns="http://www.w3.org/2000/svg">
<g filter="url(#filter0_if_202_548)">
<circle cx="63" cy="63" r="27" fill="url(#paint0_radial_202_548)"/>
</g>
<mask id="mask0_202_548" style="mask-type:luminance" maskUnits="userSpaceOnUse" x="31" y="31" width="64" height="64">
<path fill-rule="evenodd" clip-rule="evenodd" d="M95 50.9322C95 50.1724 95.0003 49.4126 94.9956 48.6528C94.9918 48.0127 94.9845 47.3728 94.9671 46.733C94.9295 45.3386 94.8472 43.9322 94.5992 42.5534C94.3477 41.1546 93.937 39.8528 93.2898 38.5819C92.6535 37.3327 91.8224 36.1897 90.8307 35.1987C89.8393 34.2077 88.6959 33.3771 87.4463 32.7412C86.174 32.0938 84.8708 31.6833 83.4705 31.4318C82.0915 31.1842 80.6848 31.1021 79.2904 31.0645C78.6501 31.0471 78.0099 31.0398 77.3695 31.0359C76.6093 31.0312 75.8491 31.0316 75.0888 31.0316L66.2619 31H59.66L50.9892 31.0316C50.2275 31.0316 49.4658 31.0312 48.7041 31.0359C48.0624 31.0398 47.421 31.0471 46.7795 31.0645C45.3819 31.1021 43.9719 31.1843 42.5897 31.4322C41.1875 31.6836 39.8823 32.094 38.6084 32.7409C37.3561 33.3768 36.2103 34.2075 35.2167 35.1987C34.2234 36.1896 33.3907 37.3324 32.7532 38.5813C32.1042 39.8529 31.6927 41.1555 31.4406 42.555C31.1924 43.9333 31.1101 45.3392 31.0723 46.733C31.0551 47.3728 31.0476 48.0128 31.0437 48.6528C31.0391 49.4127 31 50.3566 31 51.1164L31.0002 59.6671L31 66.3397L31.0395 75.072C31.0395 75.8328 31.0391 76.5937 31.0437 77.3545C31.0476 77.9955 31.0551 78.6363 31.0724 79.277C31.1101 80.6731 31.1925 82.0815 31.441 83.4623C31.693 84.8629 32.1045 86.1666 32.7529 87.4391C33.3904 88.69 34.2233 89.8346 35.2167 90.827C36.2102 91.8194 37.3558 92.651 38.6078 93.2878C39.8825 93.9361 41.1883 94.3472 42.5913 94.5989C43.973 94.8469 45.3824 94.9292 46.7795 94.9668C47.421 94.9842 48.0625 94.9915 48.7042 94.9954C49.4659 95.0001 50.2275 94.9998 50.9892 94.9998L59.7384 95H66.3566L75.0888 94.9997C75.8491 94.9997 76.6093 95.0001 77.3695 94.9954C78.0099 94.9915 78.6501 94.9842 79.2904 94.9668C80.6853 94.9291 82.0925 94.8468 83.4722 94.5986C84.8716 94.3469 86.1742 93.9359 87.4457 93.2881C88.6956 92.6514 89.8392 91.8195 90.8307 90.827C91.8222 89.8347 92.6533 88.6904 93.2896 87.4396C93.9372 86.1665 94.3479 84.8622 94.5995 83.4606C94.8473 82.0804 94.9295 80.6726 94.9671 79.277C94.9845 78.6362 94.9918 77.9954 94.9956 77.3545C95.0004 76.5937 95 75.8328 95 75.072C95 75.072 94.9995 66.4939 94.9995 66.3397V59.6601C94.9995 59.5462 95 50.9322 95 50.9322" fill="white"/>
</mask>
<g mask="url(#mask0_202_548)">
<rect x="26.4951" y="26.1846" width="70.9903" height="70.9903" fill="#101010"/>
<g filter="url(#filter1_ii_202_548)">
<path fill-rule="evenodd" clip-rule="evenodd" d="M95 50.9322C95 50.1724 95.0003 49.4126 94.9956 48.6528C94.9918 48.0127 94.9845 47.3728 94.9671 46.733C94.9295 45.3386 94.8472 43.9322 94.5992 42.5534C94.3477 41.1546 93.937 39.8528 93.2898 38.5819C92.6535 37.3327 91.8224 36.1897 90.8307 35.1987C89.8393 34.2077 88.6959 33.3771 87.4463 32.7412C86.174 32.0938 84.8708 31.6833 83.4705 31.4318C82.0915 31.1842 80.6848 31.1021 79.2904 31.0645C78.6501 31.0471 78.0099 31.0398 77.3695 31.0359C76.6093 31.0312 75.8491 31.0316 75.0888 31.0316L66.2619 31H59.66L50.9892 31.0316C50.2275 31.0316 49.4658 31.0312 48.7041 31.0359C48.0624 31.0398 47.421 31.0471 46.7795 31.0645C45.3819 31.1021 43.9719 31.1843 42.5897 31.4322C41.1875 31.6836 39.8823 32.094 38.6084 32.7409C37.3561 33.3768 36.2103 34.2075 35.2167 35.1987C34.2234 36.1896 33.3907 37.3324 32.7532 38.5813C32.1042 39.8529 31.6927 41.1555 31.4406 42.555C31.1924 43.9333 31.1101 45.3392 31.0723 46.733C31.0551 47.3728 31.0476 48.0128 31.0437 48.6528C31.0391 49.4127 31 50.3566 31 51.1164L31.0002 59.6671L31 66.3397L31.0395 75.072C31.0395 75.8328 31.0391 76.5937 31.0437 77.3545C31.0476 77.9955 31.0551 78.6363 31.0724 79.277C31.1101 80.6731 31.1925 82.0815 31.441 83.4623C31.693 84.8629 32.1045 86.1666 32.7529 87.4391C33.3904 88.69 34.2233 89.8346 35.2167 90.827C36.2102 91.8194 37.3558 92.651 38.6078 93.2878C39.8825 93.9361 41.1883 94.3472 42.5913 94.5989C43.973 94.8469 45.3824 94.9292 46.7795 94.9668C47.421 94.9842 48.0625 94.9915 48.7042 94.9954C49.4659 95.0001 50.2275 94.9998 50.9892 94.9998L59.7384 95H66.3566L75.0888 94.9997C75.8491 94.9997 76.6093 95.0001 77.3695 94.9954C78.0099 94.9915 78.6501 94.9842 79.2904 94.9668C80.6853 94.9291 82.0925 94.8468 83.4722 94.5986C84.8716 94.3469 86.1742 93.9359 87.4457 93.2881C88.6956 92.6514 89.8392 91.8195 90.8307 90.827C91.8222 89.8347 92.6533 88.6904 93.2896 87.4396C93.9372 86.1665 94.3479 84.8622 94.5995 83.4606C94.8473 82.0804 94.9295 80.6726 94.9671 79.277C94.9845 78.6362 94.9918 77.9954 94.9956 77.3545C95.0004 76.5937 95 75.8328 95 75.072C95 75.072 94.9995 66.4939 94.9995 66.3397V59.6601C94.9995 59.5462 95 50.9322 95 50.9322" fill="url(#paint1_linear_202_548)" fill-opacity="0.01"/>
</g>
<g filter="url(#filter2_d_202_548)">
<path d="M46.553 56.4047C46.553 55.7613 47.0746 55.2397 47.7181 55.2397H52.3007C52.9442 55.2397 53.4658 55.7613 53.4658 56.4047V76.8349C53.4658 77.4784 52.9442 78 52.3007 78H47.7181C47.0746 78 46.553 77.4784 46.553 76.835V56.4047ZM46 48.0744C46 46.9504 46.384 45.9982 47.1521 45.2176C47.9509 44.4059 48.9034 44 50.0094 44C51.1154 44 52.0525 44.4059 52.8206 45.2176C53.6194 45.9982 54.0188 46.9504 54.0188 48.0744C54.0188 49.1983 53.6194 50.1662 52.8206 50.978C52.0525 51.7585 51.1154 52.1488 50.0094 52.1488C48.9034 52.1488 47.9509 51.7585 47.1521 50.978C46.384 50.1662 46 49.1983 46 48.0744Z" fill="#F8F5F5"/>
<path d="M46.553 56.4047C46.553 55.7613 47.0746 55.2397 47.7181 55.2397H52.3007C52.9442 55.2397 53.4658 55.7613 53.4658 56.4047V76.8349C53.4658 77.4784 52.9442 78 52.3007 78H47.7181C47.0746 78 46.553 77.4784 46.553 76.835V56.4047ZM46 48.0744C46 46.9504 46.384 45.9982 47.1521 45.2176C47.9509 44.4059 48.9034 44 50.0094 44C51.1154 44 52.0525 44.4059 52.8206 45.2176C53.6194 45.9982 54.0188 46.9504 54.0188 48.0744C54.0188 49.1983 53.6194 50.1662 52.8206 50.978C52.0525 51.7585 51.1154 52.1488 50.0094 52.1488C48.9034 52.1488 47.9509 51.7585 47.1521 50.978C46.384 50.1662 46 49.1983 46 48.0744Z" fill="url(#paint2_linear_202_548)" fill-opacity="0.6"/>
<path d="M58.4322 56.4047C58.4322 55.7613 58.9538 55.2397 59.5972 55.2397H63.9034C64.5468 55.2397 65.0684 55.7613 65.0684 56.4047V58.2738C65.0684 58.3051 65.0939 58.3306 65.1252 58.3306V58.3306C65.1469 58.3306 65.1666 58.3183 65.1763 58.2989C65.3905 57.8724 65.6925 57.4458 66.0823 57.0193C66.4817 56.5822 66.9579 56.1919 67.5109 55.8485C68.064 55.505 68.6938 55.2241 69.4004 55.0055C70.1071 54.787 70.8752 54.6777 71.7047 54.6777C73.4559 54.6777 74.8692 54.9587 75.9445 55.5207C77.0198 56.0514 77.8494 56.8007 78.4331 57.7686C79.0476 58.7365 79.4623 59.876 79.6774 61.1873C79.8925 62.4986 80 63.9192 80 65.449V76.835C80 77.4784 79.4784 78 78.835 78H74.2523C73.6088 78 73.0872 77.4784 73.0872 76.835V66.854C73.0872 66.1983 73.0565 65.5271 72.9951 64.8402C72.9643 64.1221 72.8261 63.4665 72.5803 62.8733C72.3652 62.2801 72.0119 61.7961 71.5203 61.4215C71.0595 61.0468 70.3836 60.8595 69.4926 60.8595C68.6016 60.8595 67.8796 61.0312 67.3266 61.3747C66.7736 61.6869 66.3435 62.124 66.0362 62.6859C65.7597 63.2167 65.5754 63.8255 65.4832 64.5124C65.391 65.1993 65.3449 65.9174 65.3449 66.6667V76.835C65.3449 77.4784 64.8233 78 64.1799 78H59.5972C58.9538 78 58.4322 77.4784 58.4322 76.835V56.4047Z" fill="#F8F5F5"/>
<path d="M58.4322 56.4047C58.4322 55.7613 58.9538 55.2397 59.5972 55.2397H63.9034C64.5468 55.2397 65.0684 55.7613 65.0684 56.4047V58.2738C65.0684 58.3051 65.0939 58.3306 65.1252 58.3306V58.3306C65.1469 58.3306 65.1666 58.3183 65.1763 58.2989C65.3905 57.8724 65.6925 57.4458 66.0823 57.0193C66.4817 56.5822 66.9579 56.1919 67.5109 55.8485C68.064 55.505 68.6938 55.2241 69.4004 55.0055C70.1071 54.787 70.8752 54.6777 71.7047 54.6777C73.4559 54.6777 74.8692 54.9587 75.9445 55.5207C77.0198 56.0514 77.8494 56.8007 78.4331 57.7686C79.0476 58.7365 79.4623 59.876 79.6774 61.1873C79.8925 62.4986 80 63.9192 80 65.449V76.835C80 77.4784 79.4784 78 78.835 78H74.2523C73.6088 78 73.0872 77.4784 73.0872 76.835V66.854C73.0872 66.1983 73.0565 65.5271 72.9951 64.8402C72.9643 64.1221 72.8261 63.4665 72.5803 62.8733C72.3652 62.2801 72.0119 61.7961 71.5203 61.4215C71.0595 61.0468 70.3836 60.8595 69.4926 60.8595C68.6016 60.8595 67.8796 61.0312 67.3266 61.3747C66.7736 61.6869 66.3435 62.124 66.0362 62.6859C65.7597 63.2167 65.5754 63.8255 65.4832 64.5124C65.391 65.1993 65.3449 65.9174 65.3449 66.6667V76.835C65.3449 77.4784 64.8233 78 64.1799 78H59.5972C58.9538 78 58.4322 77.4784 58.4322 76.835V56.4047Z" fill="url(#paint3_linear_202_548)" fill-opacity="0.6"/>
</g>
</g>
<defs>
<filter id="filter0_if_202_548" x="0" y="0" width="126" height="126" filterUnits="userSpaceOnUse" color-interpolation-filters="sRGB">
<feFlood flood-opacity="0" result="BackgroundImageFix"/>
<feBlend mode="normal" in="SourceGraphic" in2="BackgroundImageFix" result="shape"/>
<feColorMatrix in="SourceAlpha" type="matrix" values="0 0 0 0 0 0 0 0 0 0 0 0 0 0 0 0 0 0 127 0" result="hardAlpha"/>
<feOffset dx="-10" dy="10"/>
<feGaussianBlur stdDeviation="10"/>
<feComposite in2="hardAlpha" operator="arithmetic" k2="-1" k3="1"/>
<feColorMatrix type="matrix" values="0 0 0 0 1 0 0 0 0 1 0 0 0 0 1 0 0 0 0.24 0"/>
<feBlend mode="normal" in2="shape" result="effect1_innerShadow_202_548"/>
<feGaussianBlur stdDeviation="18" result="effect2_foregroundBlur_202_548"/>
</filter>
<filter id="filter1_ii_202_548" x="31" y="29.4466" width="64" height="66.6408" filterUnits="userSpaceOnUse" color-interpolation-filters="sRGB">
<feFlood flood-opacity="0" result="BackgroundImageFix"/>
<feBlend mode="normal" in="SourceGraphic" in2="BackgroundImageFix" result="shape"/>
<feColorMatrix in="SourceAlpha" type="matrix" values="0 0 0 0 0 0 0 0 0 0 0 0 0 0 0 0 0 0 127 0" result="hardAlpha"/>
<feOffset dy="-1.5534"/>
<feGaussianBlur stdDeviation="1.5534"/>
<feComposite in2="hardAlpha" operator="arithmetic" k2="-1" k3="1"/>
<feColorMatrix type="matrix" values="0 0 0 0 0 0 0 0 0 0 0 0 0 0 0 0 0 0 0.3 0"/>
<feBlend mode="normal" in2="shape" result="effect1_innerShadow_202_548"/>
<feColorMatrix in="SourceAlpha" type="matrix" values="0 0 0 0 0 0 0 0 0 0 0 0 0 0 0 0 0 0 127 0" result="hardAlpha"/>
<feOffset dy="1.08738"/>
<feGaussianBlur stdDeviation="2.48544"/>
<feComposite in2="hardAlpha" operator="arithmetic" k2="-1" k3="1"/>
<feColorMatrix type="matrix" values="0 0 0 0 1 0 0 0 0 1 0 0 0 0 1 0 0 0 0.15 0"/>
<feBlend mode="normal" in2="effect1_innerShadow_202_548" result="effect2_innerShadow_202_548"/>
</filter>
<filter id="filter2_d_202_548" x="42.5825" y="42.6019" width="41.767" height="41.767" filterUnits="userSpaceOnUse" color-interpolation-filters="sRGB">
<feFlood flood-opacity="0" result="BackgroundImageFix"/>
<feColorMatrix in="SourceAlpha" type="matrix" values="0 0 0 0 0 0 0 0 0 0 0 0 0 0 0 0 0 0 127 0" result="hardAlpha"/>
<feOffset dx="0.466019" dy="2.48544"/>
<feGaussianBlur stdDeviation="1.94175"/>
<feColorMatrix type="matrix" values="0 0 0 0 0 0 0 0 0 0.0833333 0 0 0 0 0.166667 0 0 0 0.2 0"/>
<feBlend mode="normal" in2="BackgroundImageFix" result="effect1_dropShadow_202_548"/>
<feBlend mode="normal" in="SourceGraphic" in2="effect1_dropShadow_202_548" result="shape"/>
</filter>
<radialGradient id="paint0_radial_202_548" cx="0" cy="0" r="1" gradientUnits="userSpaceOnUse" gradientTransform="translate(40.1538 29.7692) rotate(53.4711) scale(69.7858)">
<stop stop-color="#0053F4"/>
<stop offset="1" stop-color="#ACC3FF"/>
</radialGradient>
<linearGradient id="paint1_linear_202_548" x1="9.16385" y1="31" x2="9.16385" y2="138.672" gradientUnits="userSpaceOnUse">
<stop stop-color="white"/>
<stop offset="0.489516" stop-color="#EFEFEF"/>
<stop offset="1" stop-color="#C0C0C0"/>
</linearGradient>
<linearGradient id="paint2_linear_202_548" x1="63" y1="44" x2="63" y2="78" gradientUnits="userSpaceOnUse">
<stop stop-opacity="0"/>
<stop offset="1"/>
</linearGradient>
<linearGradient id="paint3_linear_202_548" x1="63" y1="44" x2="63" y2="78" gradientUnits="userSpaceOnUse">
<stop stop-opacity="0"/>
<stop offset="1"/>
</linearGradient>
</defs>
</svg>
