<svg width="126" height="126" viewBox="0 0 126 126" fill="none" xmlns="http://www.w3.org/2000/svg">
<g filter="url(#filter0_if_202_553)">
<circle cx="63" cy="63" r="27" fill="url(#paint0_radial_202_553)"/>
</g>
<mask id="mask0_202_553" style="mask-type:luminance" maskUnits="userSpaceOnUse" x="31" y="31" width="64" height="64">
<path fill-rule="evenodd" clip-rule="evenodd" d="M95 50.9322C95 50.1724 95.0003 49.4126 94.9956 48.6528C94.9918 48.0127 94.9845 47.3728 94.9671 46.733C94.9295 45.3386 94.8472 43.9322 94.5992 42.5534C94.3477 41.1546 93.937 39.8528 93.2898 38.5819C92.6535 37.3327 91.8224 36.1897 90.8307 35.1987C89.8393 34.2077 88.6959 33.3771 87.4463 32.7412C86.174 32.0938 84.8708 31.6833 83.4705 31.4318C82.0915 31.1842 80.6848 31.1021 79.2904 31.0645C78.6501 31.0471 78.0099 31.0398 77.3695 31.0359C76.6093 31.0312 75.8491 31.0316 75.0888 31.0316L66.2619 31H59.66L50.9892 31.0316C50.2275 31.0316 49.4658 31.0312 48.7041 31.0359C48.0624 31.0398 47.421 31.0471 46.7795 31.0645C45.3819 31.1021 43.9719 31.1843 42.5897 31.4322C41.1875 31.6836 39.8823 32.094 38.6084 32.7409C37.3561 33.3768 36.2103 34.2075 35.2167 35.1987C34.2234 36.1896 33.3907 37.3324 32.7532 38.5813C32.1042 39.8529 31.6927 41.1555 31.4406 42.555C31.1924 43.9333 31.1101 45.3392 31.0723 46.733C31.0551 47.3728 31.0476 48.0128 31.0437 48.6528C31.0391 49.4127 31 50.3566 31 51.1164L31.0002 59.6671L31 66.3397L31.0395 75.072C31.0395 75.8328 31.0391 76.5937 31.0437 77.3545C31.0476 77.9955 31.0551 78.6363 31.0724 79.277C31.1101 80.6731 31.1925 82.0815 31.441 83.4623C31.693 84.8629 32.1045 86.1666 32.7529 87.4391C33.3904 88.69 34.2233 89.8346 35.2167 90.827C36.2102 91.8194 37.3558 92.651 38.6078 93.2878C39.8825 93.9361 41.1883 94.3472 42.5913 94.5989C43.973 94.8469 45.3824 94.9292 46.7795 94.9668C47.421 94.9842 48.0625 94.9915 48.7042 94.9954C49.4659 95.0001 50.2275 94.9998 50.9892 94.9998L59.7384 95H66.3566L75.0888 94.9997C75.8491 94.9997 76.6093 95.0001 77.3695 94.9954C78.0099 94.9915 78.6501 94.9842 79.2904 94.9668C80.6853 94.9291 82.0925 94.8468 83.4722 94.5986C84.8716 94.3469 86.1742 93.9359 87.4457 93.2881C88.6956 92.6514 89.8392 91.8195 90.8307 90.827C91.8222 89.8347 92.6533 88.6904 93.2896 87.4396C93.9372 86.1665 94.3479 84.8622 94.5995 83.4606C94.8473 82.0804 94.9295 80.6726 94.9671 79.277C94.9845 78.6362 94.9918 77.9954 94.9956 77.3545C95.0004 76.5937 95 75.8328 95 75.072C95 75.072 94.9995 66.4939 94.9995 66.3397V59.6601C94.9995 59.5462 95 50.9322 95 50.9322" fill="white"/>
</mask>
<g mask="url(#mask0_202_553)">
<rect x="26.4951" y="26.1846" width="70.9903" height="70.9903" fill="#101010"/>
<g filter="url(#filter1_ii_202_553)">
<path fill-rule="evenodd" clip-rule="evenodd" d="M95 50.9322C95 50.1724 95.0003 49.4126 94.9956 48.6528C94.9918 48.0127 94.9845 47.3728 94.9671 46.733C94.9295 45.3386 94.8472 43.9322 94.5992 42.5534C94.3477 41.1546 93.937 39.8528 93.2898 38.5819C92.6535 37.3327 91.8224 36.1897 90.8307 35.1987C89.8393 34.2077 88.6959 33.3771 87.4463 32.7412C86.174 32.0938 84.8708 31.6833 83.4705 31.4318C82.0915 31.1842 80.6848 31.1021 79.2904 31.0645C78.6501 31.0471 78.0099 31.0398 77.3695 31.0359C76.6093 31.0312 75.8491 31.0316 75.0888 31.0316L66.2619 31H59.66L50.9892 31.0316C50.2275 31.0316 49.4658 31.0312 48.7041 31.0359C48.0624 31.0398 47.421 31.0471 46.7795 31.0645C45.3819 31.1021 43.9719 31.1843 42.5897 31.4322C41.1875 31.6836 39.8823 32.094 38.6084 32.7409C37.3561 33.3768 36.2103 34.2075 35.2167 35.1987C34.2234 36.1896 33.3907 37.3324 32.7532 38.5813C32.1042 39.8529 31.6927 41.1555 31.4406 42.555C31.1924 43.9333 31.1101 45.3392 31.0723 46.733C31.0551 47.3728 31.0476 48.0128 31.0437 48.6528C31.0391 49.4127 31 50.3566 31 51.1164L31.0002 59.6671L31 66.3397L31.0395 75.072C31.0395 75.8328 31.0391 76.5937 31.0437 77.3545C31.0476 77.9955 31.0551 78.6363 31.0724 79.277C31.1101 80.6731 31.1925 82.0815 31.441 83.4623C31.693 84.8629 32.1045 86.1666 32.7529 87.4391C33.3904 88.69 34.2233 89.8346 35.2167 90.827C36.2102 91.8194 37.3558 92.651 38.6078 93.2878C39.8825 93.9361 41.1883 94.3472 42.5913 94.5989C43.973 94.8469 45.3824 94.9292 46.7795 94.9668C47.421 94.9842 48.0625 94.9915 48.7042 94.9954C49.4659 95.0001 50.2275 94.9998 50.9892 94.9998L59.7384 95H66.3566L75.0888 94.9997C75.8491 94.9997 76.6093 95.0001 77.3695 94.9954C78.0099 94.9915 78.6501 94.9842 79.2904 94.9668C80.6853 94.9291 82.0925 94.8468 83.4722 94.5986C84.8716 94.3469 86.1742 93.9359 87.4457 93.2881C88.6956 92.6514 89.8392 91.8195 90.8307 90.827C91.8222 89.8347 92.6533 88.6904 93.2896 87.4396C93.9372 86.1665 94.3479 84.8622 94.5995 83.4606C94.8473 82.0804 94.9295 80.6726 94.9671 79.277C94.9845 78.6362 94.9918 77.9954 94.9956 77.3545C95.0004 76.5937 95 75.8328 95 75.072C95 75.072 94.9995 66.4939 94.9995 66.3397V59.6601C94.9995 59.5462 95 50.9322 95 50.9322" fill="url(#paint1_linear_202_553)" fill-opacity="0.01"/>
</g>
</g>
<path d="M80.9056 55.9702L76.7632 58.2485L72.6208 62.1838V75.688H78.4202C79.793 75.688 80.9056 74.5754 80.9056 73.2026V55.9702Z" fill="url(#paint2_linear_202_553)"/>
<path d="M46.1094 55.9702L49.1035 57.3869L54.3942 62.1838V75.688H48.5948C47.222 75.688 46.1094 74.5754 46.1094 73.2026V55.9702Z" fill="url(#paint3_linear_202_553)"/>
<path d="M72.6207 51.8276L63.5074 58.6626L54.3942 51.8276L53.5657 56.6328L54.3942 62.1836L63.5074 69.0186L72.6207 62.1836L73.4492 56.6328L72.6207 51.8276Z" fill="url(#paint4_linear_202_553)"/>
<path d="M46.1094 52.7376V55.9703L54.3942 62.1839V51.8279L51.806 49.8884C51.1896 49.4261 50.4407 49.1768 49.6702 49.1768C47.7034 49.1768 46.1094 50.7708 46.1094 52.7376Z" fill="url(#paint5_linear_202_553)"/>
<path d="M80.9056 52.7376V55.9703L72.6208 62.1839V51.8279L75.209 49.8884C75.8254 49.4261 76.5744 49.1768 77.3448 49.1768C79.3116 49.1768 80.9056 50.7708 80.9056 52.7376Z" fill="url(#paint6_linear_202_553)"/>
<defs>
<filter id="filter0_if_202_553" x="0" y="0" width="126" height="126" filterUnits="userSpaceOnUse" color-interpolation-filters="sRGB">
<feFlood flood-opacity="0" result="BackgroundImageFix"/>
<feBlend mode="normal" in="SourceGraphic" in2="BackgroundImageFix" result="shape"/>
<feColorMatrix in="SourceAlpha" type="matrix" values="0 0 0 0 0 0 0 0 0 0 0 0 0 0 0 0 0 0 127 0" result="hardAlpha"/>
<feOffset dx="-10" dy="10"/>
<feGaussianBlur stdDeviation="10"/>
<feComposite in2="hardAlpha" operator="arithmetic" k2="-1" k3="1"/>
<feColorMatrix type="matrix" values="0 0 0 0 1 0 0 0 0 1 0 0 0 0 1 0 0 0 0.24 0"/>
<feBlend mode="normal" in2="shape" result="effect1_innerShadow_202_553"/>
<feGaussianBlur stdDeviation="18" result="effect2_foregroundBlur_202_553"/>
</filter>
<filter id="filter1_ii_202_553" x="31" y="29.4466" width="64" height="66.6408" filterUnits="userSpaceOnUse" color-interpolation-filters="sRGB">
<feFlood flood-opacity="0" result="BackgroundImageFix"/>
<feBlend mode="normal" in="SourceGraphic" in2="BackgroundImageFix" result="shape"/>
<feColorMatrix in="SourceAlpha" type="matrix" values="0 0 0 0 0 0 0 0 0 0 0 0 0 0 0 0 0 0 127 0" result="hardAlpha"/>
<feOffset dy="-1.5534"/>
<feGaussianBlur stdDeviation="1.5534"/>
<feComposite in2="hardAlpha" operator="arithmetic" k2="-1" k3="1"/>
<feColorMatrix type="matrix" values="0 0 0 0 0 0 0 0 0 0 0 0 0 0 0 0 0 0 0.3 0"/>
<feBlend mode="normal" in2="shape" result="effect1_innerShadow_202_553"/>
<feColorMatrix in="SourceAlpha" type="matrix" values="0 0 0 0 0 0 0 0 0 0 0 0 0 0 0 0 0 0 127 0" result="hardAlpha"/>
<feOffset dy="1.08738"/>
<feGaussianBlur stdDeviation="2.48544"/>
<feComposite in2="hardAlpha" operator="arithmetic" k2="-1" k3="1"/>
<feColorMatrix type="matrix" values="0 0 0 0 1 0 0 0 0 1 0 0 0 0 1 0 0 0 0.15 0"/>
<feBlend mode="normal" in2="effect1_innerShadow_202_553" result="effect2_innerShadow_202_553"/>
</filter>
<radialGradient id="paint0_radial_202_553" cx="0" cy="0" r="1" gradientUnits="userSpaceOnUse" gradientTransform="translate(-17 -33) rotate(49.6742) scale(169.208)">
<stop offset="0.423407" stop-color="#F40000"/>
<stop offset="0.588374" stop-color="#00C32B"/>
<stop offset="0.75" stop-color="#00A1B7"/>
<stop offset="1" stop-color="#F3DB00"/>
</radialGradient>
<linearGradient id="paint1_linear_202_553" x1="9.16385" y1="31" x2="9.16385" y2="138.672" gradientUnits="userSpaceOnUse">
<stop stop-color="white"/>
<stop offset="0.489516" stop-color="#EFEFEF"/>
<stop offset="1" stop-color="#C0C0C0"/>
</linearGradient>
<linearGradient id="paint2_linear_202_553" x1="76.7632" y1="55.9702" x2="76.7632" y2="75.688" gradientUnits="userSpaceOnUse">
<stop stop-color="white"/>
<stop offset="0.780018" stop-color="#747474"/>
</linearGradient>
<linearGradient id="paint3_linear_202_553" x1="50.2518" y1="55.9702" x2="50.2518" y2="75.688" gradientUnits="userSpaceOnUse">
<stop stop-color="white"/>
<stop offset="0.780018" stop-color="#747474"/>
</linearGradient>
<linearGradient id="paint4_linear_202_553" x1="63.5074" y1="51.8276" x2="63.5074" y2="69.0186" gradientUnits="userSpaceOnUse">
<stop stop-color="white"/>
<stop offset="0.780018" stop-color="#747474"/>
</linearGradient>
<linearGradient id="paint5_linear_202_553" x1="50.2518" y1="49.1768" x2="50.2518" y2="62.1839" gradientUnits="userSpaceOnUse">
<stop stop-color="white"/>
<stop offset="0.780018" stop-color="#747474"/>
</linearGradient>
<linearGradient id="paint6_linear_202_553" x1="76.7632" y1="49.1768" x2="76.7632" y2="62.1839" gradientUnits="userSpaceOnUse">
<stop stop-color="white"/>
<stop offset="0.780018" stop-color="#747474"/>
</linearGradient>
</defs>
</svg>
