<svg width="26" height="57" viewBox="0 0 26 57" fill="none" xmlns="http://www.w3.org/2000/svg">
<path id="Union" d="M12.7734 0.2225C12.7501 0.127489 12.7259 0.0528735 12.7008 0C12.6252 1.1844 12.5876 1.6288 11.4563 2.81321C9.72191 4.14561 0.748516 11.5111 0.0322949 26.5012C-0.670854 40.476 10.3256 48.8215 11.8179 49.8875C12.8775 52.3256 12.7761 56.4814 12.7761 56.4814L14.3217 57C14.3217 57 14.0202 52.9286 14.4728 51.0038C14.5995 50.4046 14.9055 49.8814 15.2695 49.4436C15.5361 49.2599 16.2334 48.7578 17.1526 47.9324C17.1994 47.9073 17.2254 47.8946 17.2254 47.8946L17.2234 47.8685C20.8837 44.5558 27.894 36.2365 25.5197 22.6145C23.1565 12.3894 18.3095 7.48381 15.8712 5.01606C15.1587 4.29495 14.6518 3.78201 14.4728 3.40534C13.6058 2.22094 12.776 0.148539 12.776 0.148539L12.7774 0.239149C12.7761 0.233532 12.7747 0.227982 12.7734 0.2225Z" fill="white"/>
</svg>
