<svg width="27" height="27" viewBox="0 0 27 27" fill="none" xmlns="http://www.w3.org/2000/svg">
<g id="vuesax/bold/quote-up">
<g id="vuesax/bold/quote-up_2">
<g id="quote-up">
<path id="Vector" d="M8.95323 12.871H3.76277C3.85131 7.70265 4.86948 6.85049 8.04573 4.96909C8.41094 4.74775 8.53268 4.28293 8.31134 3.90665C8.10106 3.54143 7.62518 3.4197 7.25996 3.64104C3.51929 5.85445 2.21338 7.20464 2.21338 13.6346V19.5998C2.21338 21.4922 3.7517 23.0195 5.6331 23.0195H8.95323C10.901 23.0195 12.373 21.5476 12.373 19.5998V16.2796C12.373 14.3429 10.901 12.871 8.95323 12.871Z" fill="white"/>
<path id="Vector_2" d="M20.9279 12.871H15.7375C15.826 7.70265 16.8442 6.85049 20.0204 4.96909C20.3856 4.74775 20.5074 4.28293 20.286 3.90665C20.0647 3.54143 19.5999 3.4197 19.2236 3.64104C15.4829 5.85445 14.177 7.20464 14.177 13.6457V19.6108C14.177 21.5033 15.7153 23.0306 17.5967 23.0306H20.9168C22.8647 23.0306 24.3366 21.5586 24.3366 19.6108V16.2907C24.3476 14.3429 22.8757 12.871 20.9279 12.871Z" fill="white"/>
</g>
</g>
</g>
</svg>
