<svg width="50" height="49" viewBox="0 0 50 49" fill="none" xmlns="http://www.w3.org/2000/svg">
<g id="logo">
<path d="M39.458 38.8489C41.2263 38.1021 43.3348 37.8305 46.0552 37.8982C45.9787 37.3901 45.0072 36.7868 44.2951 36.3446C44.0557 36.196 43.8456 36.0655 43.7087 35.963C42.6204 35.1824 41.4642 34.3672 40.3081 33.6545C39.9356 33.4273 39.3993 33.2377 38.8832 33.0553C38.5513 32.9379 38.2278 32.8235 37.9616 32.704C37.6896 32.5934 37.3192 32.4827 36.9194 32.3633C35.969 32.0794 34.852 31.7458 34.4929 31.2442C33.5686 30.0446 32.9236 28.5943 32.2795 27.1459C32.2125 26.9954 32.1456 26.8449 32.0784 26.6947C31.7408 25.9239 31.365 25.138 30.9872 24.3475C30.5662 23.4669 30.1426 22.5807 29.7661 21.7039C29.6019 21.3464 29.4771 21.0085 29.3542 20.6758C29.197 20.2503 29.043 19.8334 28.814 19.3954C26.3312 14.6084 22.6589 10.6022 18.204 7.78444C16.7415 6.86768 15.1094 6.01883 13.3069 5.44181C12.7564 5.27704 12.1467 5.25053 11.5309 5.22376C11.0054 5.20091 10.4755 5.17787 9.9743 5.06851H9.26009C8.8478 4.95414 8.48174 4.62403 8.14121 4.31695C7.97626 4.16821 7.81731 4.02487 7.662 3.91407C6.60768 3.20123 5.55356 2.72548 4.29518 2.21656C3.85344 2.01284 2.59506 1.53748 2.15293 1.91117C1.88065 1.97908 1.74481 2.08074 1.67679 2.35238C1.40471 2.75983 1.64297 3.371 1.81283 3.7443C2.14999 4.46226 2.57628 4.98759 3.0131 5.52589C3.23723 5.80209 3.46413 6.08171 3.68319 6.39252C3.78767 6.53972 3.89656 6.69023 4.00727 6.84325C4.50947 7.53738 5.04911 8.28325 5.38351 9.00659C5.85517 10.0209 6.19137 11.0933 6.52634 12.1617C6.81923 13.0959 7.11118 14.0271 7.49195 14.914C7.79784 15.6272 8.27418 16.4418 8.71612 17.0869C8.85472 17.2756 9.03544 17.4457 9.2184 17.6179C9.52901 17.9102 9.84608 18.2086 9.97449 18.6146C10.3052 19.1649 9.69803 20.7403 9.3291 21.6977C9.24273 21.9218 9.16941 22.112 9.12424 22.2473C8.23978 25.0312 8.40983 28.9015 9.43014 31.3119C9.46672 31.3971 9.50303 31.4836 9.53961 31.5708C9.91122 32.4565 10.31 33.4071 11.3005 33.6547C11.3313 33.6238 11.3343 33.6139 11.3409 33.6092C11.3489 33.6034 11.3623 33.6052 11.4367 33.5864C11.4865 33.1961 11.5288 32.8088 11.5706 32.4269C11.7286 30.9819 11.878 29.6148 12.3888 28.4601C12.6322 27.864 13.0337 27.3827 13.425 26.9135C13.6354 26.6614 13.8428 26.4127 14.0211 26.1516C14.2368 26.2808 14.3156 26.5739 14.3966 26.8751C14.4433 27.0486 14.4906 27.2248 14.5653 27.3738C14.5965 27.4481 14.6279 27.5229 14.6594 27.5982C15.0748 28.5887 15.522 29.6549 16.0275 30.6328C17.1497 32.8057 18.4082 34.9104 19.8363 36.8119C20.3122 37.4909 20.9926 38.2379 21.6046 38.8487C21.6978 38.9302 21.795 38.9998 21.8908 39.0683C22.0744 39.1995 22.2525 39.327 22.3867 39.5278H22.4549V39.6298C21.8091 39.3935 21.3133 38.8851 20.8294 38.3889C20.5486 38.101 20.2719 37.8172 19.9721 37.593C18.4419 36.4386 16.6057 34.7069 15.5514 33.0435C15.2185 32.3279 14.8665 31.6313 14.5096 30.9252C14.3925 30.6934 14.2748 30.4606 14.1572 30.2257V30.1576C14.0273 30.3306 14.0078 30.5035 13.9842 30.7115C13.9708 30.8302 13.9561 30.9603 13.9189 31.1084C13.793 31.5923 13.7306 32.0955 13.6703 32.5818C13.5191 33.8016 13.381 34.9152 12.2868 35.352C10.5525 36.0653 9.26009 34.1974 8.71612 33.3489C6.98199 30.5311 6.50565 25.7781 7.72982 21.9417C7.82456 21.6464 7.89048 21.3306 7.95621 21.0156C8.07938 20.4253 8.20191 19.8382 8.51225 19.3954C8.44399 18.9874 8.2091 18.7761 7.97953 18.5695C7.86531 18.4667 7.7524 18.3652 7.662 18.2411C7.18585 17.596 6.77793 16.8492 6.40381 16.1364C5.86027 15.0772 5.43519 13.8607 5.02321 12.6817C4.8937 12.311 4.76548 11.9441 4.63528 11.5869C4.5192 11.289 4.44359 10.9909 4.36899 10.6968C4.29059 10.3878 4.2133 10.0831 4.09132 9.78754C3.76959 9.09161 3.23675 8.39581 2.74215 7.74993C2.60933 7.57649 2.47927 7.40665 2.3568 7.24137C2.22425 7.05138 2.04867 6.83114 1.85295 6.58564C0.894204 5.38303 -0.54805 3.57392 0.214544 1.7414C1.64278 -1.75548 6.64208 0.892352 8.58008 2.1147C8.77384 2.23905 8.97886 2.4196 9.19057 2.60604C9.4991 2.87774 9.82182 3.16194 10.1445 3.3029C10.5697 3.31997 10.9949 3.34544 11.42 3.37091C11.8451 3.39638 12.2701 3.42184 12.6949 3.43891C12.8342 3.47144 12.9727 3.50346 13.1104 3.53527C14.5522 3.86856 15.8991 4.17991 17.0478 4.83063C22.8968 8.2598 26.7056 11.7567 30.2082 17.5283C30.6838 18.305 31.0083 19.1231 31.3387 19.9562C31.5281 20.4337 31.7194 20.9162 31.9423 21.3987C32.7926 23.3676 33.7451 25.4384 34.731 27.3059C34.8548 27.5532 34.9706 27.8086 35.0867 28.0644C35.3849 28.7217 35.6846 29.3824 36.1254 29.92C36.2838 30.146 36.6383 30.2666 36.9779 30.3822C37.1484 30.4402 37.3151 30.4969 37.4514 30.5651C37.8913 30.7913 38.3678 30.9966 38.8481 31.2037C39.5931 31.5247 40.3473 31.8497 40.9883 32.2626C42.9605 33.4847 44.865 34.9444 46.5994 36.4386C46.9499 36.7517 47.2404 37.1347 47.5305 37.5172C47.7752 37.8398 48.0196 38.162 48.2995 38.4416V38.747C47.7555 38.9168 47.2114 39.0866 46.6674 39.2224C46.0754 39.3744 45.5171 39.4339 44.9632 39.493C44.4033 39.5527 43.8479 39.612 43.2668 39.7657C43.1926 39.7868 43.1166 39.8087 43.0391 39.831C42.3703 40.0236 41.5906 40.2481 40.9203 40.3089C40.9541 40.3429 40.9883 40.3766 40.9883 40.3766C41.316 41.3082 42.7097 42.109 43.852 42.7653C44.2502 42.9941 44.6178 43.2053 44.8991 43.3984C46.2253 44.3489 47.4494 45.5033 48.4355 46.8271C48.6047 46.996 48.7739 47.1564 48.9431 47.3169C49.1141 47.479 49.2851 47.6411 49.4558 47.8118C49.571 47.9761 49.6463 48.1643 49.7204 48.3494C49.7994 48.5467 49.8771 48.7405 50 48.8983V49C49.7023 48.894 49.4978 48.6818 49.2949 48.4712C49.1732 48.3449 49.052 48.2191 48.9117 48.1174C48.591 47.8992 48.2705 47.6622 47.9499 47.4252C47.5225 47.1092 47.0951 46.7932 46.6674 46.5217C46.0094 46.1068 45.2984 45.7799 44.5838 45.4514C43.8952 45.1348 43.2033 44.8167 42.5524 44.4168C41.8045 43.9414 41.0901 43.3984 40.3761 42.8553C39.7299 42.3797 39.0163 41.463 38.6078 40.7841C38.5048 40.6227 38.4401 40.4486 38.3777 40.281C38.2958 40.0609 38.2181 39.852 38.0636 39.6978C38.1145 39.2152 38.5839 39.0935 39.0308 38.9776C39.1814 38.9386 39.3294 38.9002 39.458 38.8489Z" fill="white"/>
<path d="M9.97387 8.56519C10.382 8.46353 10.7899 8.39523 11.3679 8.39523C11.4757 8.50292 11.6102 8.59456 11.746 8.68709C11.953 8.82813 12.1631 8.97122 12.2862 9.17637C12.3617 9.28197 12.4104 9.38757 12.4591 9.49316C12.52 9.62521 12.5809 9.75724 12.6943 9.8892C12.6943 10.7041 12.4564 11.2472 11.9801 11.5869C11.9801 11.5869 11.9461 11.6207 11.9122 11.6548C11.7763 11.3835 11.6489 11.1122 11.5215 10.8409C11.3938 10.5689 11.2661 10.2969 11.1298 10.025C10.9974 9.83993 10.8444 9.67027 10.6908 9.49998C10.4501 9.23312 10.2081 8.96475 10.0419 8.6331H9.97387V8.56519Z" fill="white"/>
</g>
</svg>
